<?xml version="1.0" encoding="UTF-8" standalone="no"?>
<svg
   xmlns:dc="http://purl.org/dc/elements/1.1/"
   xmlns:cc="http://creativecommons.org/ns#"
   xmlns:rdf="http://www.w3.org/1999/02/22-rdf-syntax-ns#"
   xmlns:svg="http://www.w3.org/2000/svg"
   xmlns="http://www.w3.org/2000/svg"
   xmlns:xlink="http://www.w3.org/1999/xlink"
   xmlns:sodipodi="http://sodipodi.sourceforge.net/DTD/sodipodi-0.dtd"
   xmlns:inkscape="http://www.inkscape.org/namespaces/inkscape"
   viewBox="0 0 48 48"
   id="svg2"
   version="1.1"
   inkscape:version="0.91 r13725"
   sodipodi:docname="accessories-camera.svg">
  <metadata
     id="metadata99">
    <rdf:RDF>
      <cc:Work
         rdf:about="">
        <dc:format>image/svg+xml</dc:format>
        <dc:type
           rdf:resource="http://purl.org/dc/dcmitype/StillImage" />
      </cc:Work>
    </rdf:RDF>
  </metadata>
  <sodipodi:namedview
     pagecolor="#ffffff"
     bordercolor="#666666"
     borderopacity="1"
     objecttolerance="10"
     gridtolerance="10"
     guidetolerance="10"
     inkscape:pageopacity="0"
     inkscape:pageshadow="2"
     inkscape:window-width="1366"
     inkscape:window-height="677"
     id="namedview97"
     showgrid="false"
     inkscape:zoom="3.4766083"
     inkscape:cx="29.072538"
     inkscape:cy="54.59154"
     inkscape:window-x="0"
     inkscape:window-y="33"
     inkscape:window-maximized="1"
     inkscape:current-layer="svg2" />
  <defs
     id="defs4">
    <linearGradient
       id="linearGradient3764"
       x1="1"
       x2="47"
       gradientUnits="userSpaceOnUse"
       gradientTransform="translate(-48.000001,0.00221467)">
      <stop
         stop-color="#ff7061"
         stop-opacity="1"
         id="stop7" />
      <stop
         offset="1"
         stop-color="#ff8275"
         stop-opacity="1"
         id="stop9" />
    </linearGradient>
    <clipPath
       id="clipPath-357861450">
      <g
         transform="translate(0,-1004.3622)"
         id="g12">
        <rect
           rx="4"
           y="1005.36"
           x="1"
           height="46"
           width="46"
           fill="#1890d0"
           id="rect14" />
      </g>
    </clipPath>
    <clipPath
       id="clipPath-371129264">
      <g
         transform="translate(0,-1004.3622)"
         id="g17">
        <rect
           rx="4"
           y="1005.36"
           x="1"
           height="46"
           width="46"
           fill="#1890d0"
           id="rect19" />
      </g>
    </clipPath>
    <radialGradient
       id="radial0"
       gradientUnits="userSpaceOnUse"
       cx="6.773"
       cy="5.927"
       r="0.564"
       gradientTransform="matrix(3.543307,0,0,3.543307,0.000000147638,0.000377575)">
      <stop
         stop-color="#8eb0c7"
         stop-opacity="1"
         id="stop22" />
      <stop
         offset="1"
         stop-color="#8eb0c7"
         stop-opacity="0"
         id="stop24" />
    </radialGradient>
    <radialGradient
       id="radial1"
       gradientUnits="userSpaceOnUse"
       cx="6"
       cy="17.292"
       r="1"
       gradientTransform="translate(17.847458,5.6232252)"
       xlink:href="#radial0" />
    <radialGradient
       id="radialGradient27"
       gradientUnits="userSpaceOnUse"
       cx="6.773"
       cy="5.927"
       r="0.564"
       gradientTransform="matrix(3.543307,0,0,3.543307,0.000000147638,0.000377575)">
      <stop
         stop-color="#8eb0c7"
         stop-opacity="1"
         id="stop29" />
      <stop
         offset="1"
         stop-color="#8eb0c7"
         stop-opacity="0"
         id="stop31" />
    </radialGradient>
    <radialGradient
       id="radialGradient33"
       gradientUnits="userSpaceOnUse"
       cx="6"
       cy="17.292"
       r="1"
       gradientTransform="matrix(1,0,0,1,18,8.707971)"
       xlink:href="#radial0" />
    <radialGradient
       inkscape:collect="always"
       xlink:href="#radial0"
       id="radialGradient4274"
       gradientUnits="userSpaceOnUse"
       gradientTransform="matrix(3.543307,0,0,3.543307,2.5932205,-0.79623259)"
       cx="6.773"
       cy="5.927"
       r="0.564" />
    <radialGradient
       inkscape:collect="always"
       xlink:href="#radial0"
       id="radialGradient4312"
       gradientUnits="userSpaceOnUse"
       gradientTransform="matrix(3.543307,0,0,3.543307,-2.6440676,4.6444454)"
       cx="6.773"
       cy="5.927"
       r="0.564" />
  </defs>
  <g
     id="g43"
     style="fill:#9955ff">
    <rect
       width="46"
       height="46"
       x="-47"
       y="1"
       rx="3"
       transform="matrix(0,-1,1,0,0,0)"
       id="rect45"
       style="fill:#9955ff;fill-opacity:1"
       ry="3" />
  </g>
  <g
     id="g35">
    <path
       d="m 1 43 l 0 0.25 c 0 2.216 1.784 4 4 4 l 38 0 c 2.216 0 4 -1.784 4 -4 l 0 -0.25 c 0 2.216 -1.784 4 -4 4 l -38 0 c -2.216 0 -4 -1.784 -4 -4 z m 0 0.5 l 0 0.5 c 0 2.216 1.784 4 4 4 l 38 0 c 2.216 0 4 -1.784 4 -4 l 0 -0.5 c 0 2.216 -1.784 4 -4 4 l -38 0 c -2.216 0 -4 -1.784 -4 -4 z"
       opacity="0.02"
       id="path37" />
    <path
       d="m 1 43.25 l 0 0.25 c 0 2.216 1.784 4 4 4 l 38 0 c 2.216 0 4 -1.784 4 -4 l 0 -0.25 c 0 2.216 -1.784 4 -4 4 l -38 0 c -2.216 0 -4 -1.784 -4 -4 z"
       opacity="0.05"
       id="path39" />
    <path
       d="m 1 43 l 0 0.25 c 0 2.216 1.784 4 4 4 l 38 0 c 2.216 0 4 -1.784 4 -4 l 0 -0.25 c 0 2.216 -1.784 4 -4 4 l -38 0 c -2.216 0 -4 -1.784 -4 -4 z"
       opacity="0.1"
       id="path41" />
  </g>
  <g
     id="g5640"
     transform="translate(-0.76844234,4.2218358)">
    <g
       id="g5587">
      <g
         id="g5535">
        <g
           id="g5484">
          <g
             id="g5434">
            <g
               id="g5385">
              <g
                 id="g5337">
                <g
                   id="g5290">
                  <g
                     id="g5244">
                    <g
                       id="g5199">
                      <g
                         id="g5155">
                        <g
                           id="g5112">
                          <g
                             id="g5070">
                            <g
                               id="g5029">
                              <g
                                 id="g4989">
                                <g
                                   id="g4950">
                                <g
                                   id="g4912">
                                <g
                                   id="g4875">
                                <g
                                   id="g4839">
                                <g
                                   id="g4804">
                                <g
                                   id="g4770">
                                <g
                                   id="g4737">
                                <g
                                   id="g4705">
                                <g
                                   id="g4674">
                                <g
                                   id="g4644">
                                <g
                                   id="g4615">
                                <g
                                   id="g4587">
                                <g
                                   id="g4560">
                                <g
                                   id="g4534">
                                <g
                                   id="g4509">
                                <g
                                   id="g4485">
                                <g
                                   id="g4462">
                                <g
                                   id="g4440">
                                <g
                                   id="g4419">
                                <g
                                   id="g4399">
                                <g
                                   id="g4380">
                                <g
                                   id="g4362">
                                <g
                                   id="g4345">
                                <g
                                   id="g4329">
                                <g
                                   id="g4314">
                                <path
                                   d="m 35,24 c 0,6.074 -4.926,11 -11,11 -6.074,0 -11,-4.926 -11,-11 0,-6.074 4.926,-11 11,-11 6.074,0 11,4.926 11,11 m 0,0"
                                   id="path59"
                                   inkscape:connector-curvature="0"
                                   style="fill:#000000;fill-opacity:1;fill-rule:nonzero;stroke:none" />
                                <path
                                   d="m 32,24 c 0,4.418 -3.582,8 -8,8 -4.418,0 -8,-3.582 -8,-8 0,-4.418 3.582,-8 8,-8 4.418,0 8,3.582 8,8 m 0,0"
                                   id="path61"
                                   inkscape:connector-curvature="0"
                                   style="fill:#000000;fill-opacity:1;fill-rule:nonzero;stroke:none" />
                                <path
                                   d="m 30,24 c 0,3.313 -2.688,6 -6,6 -3.313,0 -6,-2.688 -6,-6 0,-3.313 2.688,-6 6,-6 3.313,0 6,2.688 6,6 m 0,0"
                                   id="path63"
                                   inkscape:connector-curvature="0"
                                   style="fill:#000000;fill-opacity:1;fill-rule:nonzero;stroke:none" />
                                <path
                                   d="m 26,21 c 0,1.105 -0.895,2 -2,2 -1.105,0 -2,-0.895 -2,-2 0,-1.105 0.895,-2 2,-2 1.105,0 2,0.895 2,2 m 0,0"
                                   id="path65"
                                   inkscape:connector-curvature="0"
                                   style="fill:#000000;fill-rule:nonzero;stroke:none" />
                                <path
                                   d="m 25,26 c 0,0.551 -0.449,1 -1,1 -0.551,0 -1,-0.449 -1,-1 0,-0.551 0.449,-1 1,-1 0.551,0 1,0.449 1,1 m 0,0"
                                   id="path67"
                                   inkscape:connector-curvature="0"
                                   style="fill:#000000;fill-rule:nonzero;stroke:none" />
                                <path
                                   d="m 42.188392,8.3528175 c 0,2.2968945 -1.860381,4.1572755 -4.157275,4.1572755 -2.296894,0 -4.157275,-1.860381 -4.157275,-4.1572755 0,-2.2968944 1.860381,-4.1572749 4.157275,-4.1572749 2.296894,0 4.157275,1.8603805 4.157275,4.1572749 m 0,0"
                                   id="path77"
                                   inkscape:connector-curvature="0"
                                   style="fill:#ffffff;fill-opacity:1;fill-rule:nonzero;stroke:none" />
                                <path
                                   d="M 38,23 C 38,30.73 31.73,37 24,37 16.27,37 10,30.73 10,23 10,15.27 16.27,9 24,9 c 7.73,0 14,6.27 14,14 m 0,0"
                                   id="path79"
                                   inkscape:connector-curvature="0"
                                   style="fill:#333333;fill-opacity:1;fill-rule:nonzero;stroke:none" />
                                <path
                                   d="m 35,23 c 0,6.074 -4.926,11 -11,11 -6.074,0 -11,-4.926 -11,-11 0,-6.074 4.926,-11 11,-11 6.074,0 11,4.926 11,11 m 0,0"
                                   id="path81"
                                   inkscape:connector-curvature="0"
                                   style="fill:#666666;fill-opacity:1;fill-rule:nonzero;stroke:none" />
                                <path
                                   d="m 32,23 c 0,4.418 -3.582,8 -8,8 -4.418,0 -8,-3.582 -8,-8 0,-4.418 3.582,-8 8,-8 4.418,0 8,3.582 8,8 m 0,0"
                                   id="path83"
                                   inkscape:connector-curvature="0"
                                   style="fill:#cccccc;fill-opacity:1;fill-rule:nonzero;stroke:none" />
                                <path
                                   d="m 30,23 c 0,3.313 -2.688,6 -6,6 -3.313,0 -6,-2.688 -6,-6 0,-3.313 2.688,-6 6,-6 3.313,0 6,2.688 6,6 m 0,0"
                                   id="path85"
                                   inkscape:connector-curvature="0"
                                   style="fill:#1a1a1a;fill-opacity:1;fill-rule:nonzero;stroke:none" />
                                <path
                                   d="m 28.59322,20.20339 c 0,1.105 -0.895,2 -2,2 -1.105,0 -2,-0.895 -2,-2 0,-1.105 0.895,-2 2,-2 1.105,0 2,0.895 2,2 m 0,0"
                                   id="path87"
                                   style="fill:url(#radialGradient4274);fill-rule:nonzero;stroke:none"
                                   inkscape:connector-curvature="0" />
                                <path
                                   d="m 24.847458,22.915254 c 0,0.551 -0.449,1 -1,1 -0.551,0 -1,-0.449 -1,-1 0,-0.551 0.449,-1 1,-1 0.551,0 1,0.449 1,1 m 0,0"
                                   id="path89"
                                   style="fill:url(#radial1);fill-rule:nonzero;stroke:none"
                                   inkscape:connector-curvature="0" />
                                <path
                                   inkscape:connector-curvature="0"
                                   style="fill:url(#radialGradient4312);fill-rule:nonzero;stroke:none"
                                   id="path4310"
                                   d="m 23.355932,25.644068 c 0,1.105 -0.895,2 -2,2 -1.105,0 -2,-0.895 -2,-2 0,-1.105 0.895,-2 2,-2 1.105,0 2,0.895 2,2 m 0,0" />
                                </g>
                                </g>
                                </g>
                                </g>
                                </g>
                                </g>
                                </g>
                                </g>
                                </g>
                                </g>
                                </g>
                                </g>
                                </g>
                                </g>
                                </g>
                                </g>
                                </g>
                                </g>
                                </g>
                                </g>
                                </g>
                                </g>
                                </g>
                                </g>
                                </g>
                              </g>
                            </g>
                          </g>
                        </g>
                      </g>
                    </g>
                  </g>
                </g>
              </g>
            </g>
          </g>
        </g>
      </g>
    </g>
  </g>
  <rect
     style="opacity:1;fill:#4d4d4d;fill-opacity:1;stroke:none;stroke-opacity:1"
     id="rect5694"
     width="11.646031"
     height="3.5623155"
     x="8.0947332"
     y="6.0872402"
     rx="0"
     ry="0" />
  <rect
     ry="0"
     rx="0"
     y="6.566783"
     x="9.662468"
     height="2.6032307"
     width="8.5105619"
     id="rect5696"
     style="opacity:1;fill:#ffffff;fill-opacity:1;stroke:none;stroke-opacity:1" />
</svg>
