<?xml version="1.0" encoding="UTF-8" standalone="no"?>
<svg
   xmlns:dc="http://purl.org/dc/elements/1.1/"
   xmlns:cc="http://creativecommons.org/ns#"
   xmlns:rdf="http://www.w3.org/1999/02/22-rdf-syntax-ns#"
   xmlns:svg="http://www.w3.org/2000/svg"
   xmlns="http://www.w3.org/2000/svg"
   xmlns:sodipodi="http://sodipodi.sourceforge.net/DTD/sodipodi-0.dtd"
   xmlns:inkscape="http://www.inkscape.org/namespaces/inkscape"
   viewBox="0 0 48 48"
   id="svg3062"
   version="1.1"
   inkscape:version="0.91 r"
   width="100%"
   height="100%"
   sodipodi:docname="firefox-beta.svg">
  <metadata
     id="metadata3145">
    <rdf:RDF>
      <cc:Work
         rdf:about="">
        <dc:format>image/svg+xml</dc:format>
        <dc:type
           rdf:resource="http://purl.org/dc/dcmitype/StillImage" />
      </cc:Work>
    </rdf:RDF>
  </metadata>
  <sodipodi:namedview
     pagecolor="#ffffff"
     bordercolor="#666666"
     borderopacity="1"
     objecttolerance="10"
     gridtolerance="10"
     guidetolerance="10"
     inkscape:pageopacity="0"
     inkscape:pageshadow="2"
     inkscape:window-width="1366"
     inkscape:window-height="714"
     id="namedview3143"
     showgrid="false"
     inkscape:zoom="4.9166667"
     inkscape:cx="77.013111"
     inkscape:cy="25.423729"
     inkscape:window-x="0"
     inkscape:window-y="0"
     inkscape:window-maximized="1"
     inkscape:current-layer="svg3062" />
  <defs
     id="defs3064">
    <linearGradient
       id="linearGradient3764"
       x1="1"
       x2="47"
       gradientUnits="userSpaceOnUse"
       gradientTransform="translate(-46.372882,51.459842)">
      <stop
         stop-color="#60c3e0"
         stop-opacity="1"
         id="stop3067" />
      <stop
         offset="1"
         stop-color="#71cae3"
         stop-opacity="1"
         id="stop3069" />
    </linearGradient>
    <clipPath
       id="clipPath-768845224">
      <g
         transform="translate(0,-1004.3622)"
         id="g3072">
        <rect
           rx="4"
           y="1005.36"
           x="1"
           height="46"
           width="46"
           fill="#1890d0"
           id="rect3074" />
      </g>
    </clipPath>
    <clipPath
       id="clipPath-786983444">
      <g
         transform="translate(0,-1004.3622)"
         id="g3077">
        <rect
           rx="4"
           y="1005.36"
           x="1"
           height="46"
           width="46"
           fill="#1890d0"
           id="rect3079" />
      </g>
    </clipPath>
    <linearGradient
       id="linearGradient3764-4"
       x1="1"
       x2="47"
       gradientUnits="userSpaceOnUse"
       gradientTransform="translate(-48.000001,0.00221467)">
      <stop
         stop-color="#60c3e0"
         stop-opacity="1"
         id="stop7" />
      <stop
         offset="1"
         stop-color="#71cae3"
         stop-opacity="1"
         id="stop9" />
    </linearGradient>
    <linearGradient
       id="linearGradient3764-8"
       x1="1"
       x2="47"
       gradientUnits="userSpaceOnUse"
       gradientTransform="translate(-48.000001,0.00221467)">
      <stop
         stop-color="#60c3e0"
         stop-opacity="1"
         id="stop7-8" />
      <stop
         offset="1"
         stop-color="#71cae3"
         stop-opacity="1"
         id="stop9-7" />
    </linearGradient>
  </defs>
  <g
     id="g35"
     transform="translate(57.762712,2.0338985)" />
  <g
     id="g8101"
     transform="matrix(0.90524229,0,0,0.90524229,2.2741849,1.9059507)">
    <path
       sodipodi:nodetypes="ssssssssssssssssssss"
       inkscape:connector-curvature="0"
       id="path3229"
       d="M 21.868365,47.125186 C 18.6312,46.786759 16.070086,46.073932 13.442768,44.780114 10.994587,43.574513 9.0994384,42.18662 7.1223222,40.151399 3.6061706,36.531915 1.5198092,32.276439 0.78833919,27.232203 c -0.2272461,-1.567099 -0.2272461,-4.663508 0,-6.230607 C 1.1101061,18.782679 1.7188718,16.66963 2.630711,14.606647 c 0.2514873,-0.568976 2.2432735,-2.78324 3.1913468,-5.1105656 1.0374398,-2.5467003 0.2606301,0.470417 0.339771,0.470417 0.077901,0 -0.095835,-2.0556675 0.1385475,-1.3723161 0.2176004,0.6344271 0.6289812,0.027873 0.6767101,0.076918 0.049921,0.0513 1.0551064,-1.3209445 1.4192568,-1.6518993 2.6820678,-2.4375744 6.2132708,-4.3112807 9.7566418,-5.1770138 2.099181,-0.5128791 3.20322,-0.6396423 5.571018,-0.6396423 2.437945,0 3.605909,0.1410406 5.777957,0.6977284 3.900519,0.9996897 7.661312,3.1550607 10.580331,6.0637638 3.724643,3.7114769 5.852565,8.0292939 6.625834,13.4446339 0.183928,1.288081 0.155868,4.535619 -0.05114,5.91798 -0.462001,3.085256 -1.373917,5.757373 -2.826403,8.281984 -3.52959,6.134895 -9.526235,10.227359 -16.595918,11.326031 -1.011368,0.157174 -4.500403,0.281045 -5.366304,0.19052 z"
       style="fill:#00ccff;fill-opacity:1" />
    <path
       inkscape:connector-curvature="0"
       id="path2991"
       d="M 22.404085,47.564431 C 14.983284,47.055575 8.3297742,43.205372 4.2562917,37.062807 3.4105927,35.787543 2.1817361,33.354121 1.7078034,32.016205 0.72209779,29.23355 0.39130979,27.210264 0.38939049,23.952048 0.38700049,19.894027 0.82340179,17.922039 2.7151329,13.442629 3.2105971,12.269427 4.2163909,9.8236084 4.9502308,8.0074803 5.6840706,6.1913514 6.3109686,4.7312422 6.3433371,4.7627911 c 0.03237,0.031544 0.4093189,1.0492304 0.8376661,2.2615135 l 0.7788139,2.2041528 0.3101646,-0.03532 c 0.1705917,-0.01942 1.1035637,-0.04127 2.0732723,-0.04855 1.550538,-0.01163 1.842581,0.01368 2.422276,0.209929 0.36254,0.122738 0.72241,0.198809 0.799709,0.16905 0.0773,-0.02976 0.637724,-0.8224021 1.245388,-1.7614251 0.607667,-0.939023 1.138144,-1.7073147 1.178841,-1.7073147 0.0407,0 0.268661,1.3678574 0.506586,3.0396838 0.247963,1.7423526 0.487994,3.0941086 0.5624,3.1672026 0.164413,0.161511 4.871636,1.085983 4.983899,0.978808 0.08812,-0.08412 2.310833,0.332317 2.43417,0.456061 0.03972,0.03985 -0.02788,0.151188 -0.150223,0.247425 -0.12234,0.09624 -0.55709,0.452603 -0.966114,0.791924 -0.826776,0.685883 -0.8391,0.683832 -1.044172,-0.173813 -0.07348,-0.307344 -0.17519,-0.495161 -0.268128,-0.495161 -0.303742,0 -3.402564,0.733677 -3.496384,0.827803 -0.06033,0.06053 -0.04822,0.401449 0.03198,0.900257 0.07099,0.441558 0.125852,1.262499 0.121905,1.824317 l -0.0072,1.021484 1.130363,0.964746 c 0.621699,0.530609 1.1337,0.994036 1.137777,1.029838 0.0041,0.0358 -0.961,0.616112 -2.144617,1.289581 -2.573989,1.464583 -3.100769,1.841615 -3.546289,2.538184 -1.176171,1.838936 -0.912262,4.272714 0.631236,5.821293 1.88205,1.888247 4.99425,1.805526 6.738896,-0.179115 0.655929,-0.746163 0.889883,-1.271539 1.176264,-2.641482 l 0.05982,-0.286148 1.928783,0 1.928782,0 -0.07323,0.68607 c -0.409749,3.838779 -3.344711,6.95912 -7.133007,7.583545 -0.488658,0.08054 -0.513257,0.32591 -0.05185,0.517192 0.583435,0.241874 2.24897,0.473966 3.401267,0.473966 3.375023,0 6.34603,-1.246605 8.772146,-3.680707 2.443394,-2.451434 3.669237,-5.411216 3.690136,-8.909782 0.0098,-1.63895 -0.463996,-3.725283 -1.154234,-5.082699 -0.1265,-0.24877 -0.208558,-0.473821 -0.182354,-0.500111 0.06464,-0.06485 1.118874,1.191255 1.612865,1.921692 0.503369,0.7443 1.056823,1.848501 1.365661,2.724635 0.305492,0.866648 0.397965,0.993959 0.585387,0.805919 0.09153,-0.09184 0.182022,-0.652461 0.259478,-1.607601 C 39.275413,16.635712 37.184259,10.726001 33.38054,6.7051623 32.98803,6.2902485 32.726672,5.9507734 32.799745,5.9507734 c 0.176235,0 1.290142,0.6220204 2.382604,1.3304786 2.917165,1.8917734 5.356549,4.634811 6.936746,7.800229 0.851915,1.706536 1.064462,1.368321 0.586977,-0.934023 C 42.221429,11.810597 40.960024,8.5862445 39.784609,6.6797415 L 39.49629,6.2120932 39.924037,6.5519886 c 0.512672,0.4073814 1.692809,1.6632459 2.537771,2.7006118 0.997136,1.2241916 1.92217,2.6865846 2.716219,4.2940896 1.603768,3.246737 2.310056,6.074587 2.419443,9.687011 0.123727,4.086044 -0.623176,7.642287 -2.347197,11.175742 -3.079149,6.310842 -8.722489,10.850424 -15.587392,12.538716 -2.159918,0.531191 -4.992506,0.771678 -7.258783,0.616277 z"
       style="fill:#4d4d4d;fill-opacity:1" />
    <path
       inkscape:connector-curvature="0"
       id="path2999"
       d="m 20.805633,16.811772 c 1.926369,-1.539058 1.949629,-1.563645 1.869976,-1.976946 -0.15849,-0.822367 -0.30249,-1.049363 -0.615254,-0.969846 -0.158644,0.04033 -1.015303,0.221251 -1.903689,0.402045 -0.888385,0.180792 -1.662809,0.371083 -1.720941,0.422865 -0.05813,0.05179 -0.03991,0.444179 0.0405,0.87199 0.0804,0.427811 0.147562,1.251776 0.149233,1.831031 0.0017,0.579255 0.054,1.036114 0.116295,1.015248 0.06229,-0.02088 0.991039,-0.739246 2.063886,-1.596387 z"
       style="fill:#ffffff" />
    <path
       inkscape:connector-curvature="0"
       id="path3227"
       d="m 27.724514,27.132855 c 0,-0.418052 -0.347108,-1.255102 -0.679308,-1.638155 -0.597429,-0.688879 -1.370161,-0.789165 -2.122439,-0.275453 -0.518307,0.353938 -0.898389,1.017187 -1.042394,1.818997 l -0.0658,0.366374 1.954968,0 c 1.902886,0 1.954973,-0.0073 1.954973,-0.271763 z"
       style="fill:#ffffff" />
    <path
       sodipodi:nodetypes="sssssss"
       inkscape:connector-curvature="0"
       id="path2989"
       d="m 22.284274,14.447703 c -0.268177,-0.882113 -0.289763,-1.081102 -0.211032,-1.227602 0.05206,-0.09686 2.28086,0.265186 2.411118,0.482072 0.02896,0.04823 -0.0304,0.148076 -0.150224,0.247425 -0.132642,0.109978 -0.536566,0.46139 -0.933103,0.79046 -0.396535,0.329069 -0.775674,0.562533 -0.808653,0.562533 -0.03298,0 -0.162049,-0.374469 -0.308106,-0.854889 z"
       style="fill:#000000" />
  </g>
</svg>
