<?xml version="1.0" encoding="UTF-8" standalone="no"?>
<svg
   xmlns:dc="http://purl.org/dc/elements/1.1/"
   xmlns:cc="http://creativecommons.org/ns#"
   xmlns:rdf="http://www.w3.org/1999/02/22-rdf-syntax-ns#"
   xmlns:svg="http://www.w3.org/2000/svg"
   xmlns="http://www.w3.org/2000/svg"
   xmlns:sodipodi="http://sodipodi.sourceforge.net/DTD/sodipodi-0.dtd"
   xmlns:inkscape="http://www.inkscape.org/namespaces/inkscape"
   viewBox="0 0 48 48"
   id="svg2"
   version="1.1"
   inkscape:version="0.91 r"
   sodipodi:docname="firefox-icon-unbranded.svg">
  <metadata
     id="metadata61">
    <rdf:RDF>
      <cc:Work
         rdf:about="">
        <dc:format>image/svg+xml</dc:format>
        <dc:type
           rdf:resource="http://purl.org/dc/dcmitype/StillImage" />
      </cc:Work>
    </rdf:RDF>
  </metadata>
  <sodipodi:namedview
     pagecolor="#ffffff"
     bordercolor="#666666"
     borderopacity="1"
     objecttolerance="10"
     gridtolerance="10"
     guidetolerance="10"
     inkscape:pageopacity="0"
     inkscape:pageshadow="2"
     inkscape:window-width="1366"
     inkscape:window-height="714"
     id="namedview59"
     showgrid="false"
     inkscape:zoom="4.9166667"
     inkscape:cx="-17.067797"
     inkscape:cy="24"
     inkscape:window-x="0"
     inkscape:window-y="0"
     inkscape:window-maximized="1"
     inkscape:current-layer="svg2" />
  <defs
     id="defs4">
    <linearGradient
       id="linearGradient3764"
       x1="1"
       x2="47"
       gradientUnits="userSpaceOnUse"
       gradientTransform="translate(-48.000001,0.00221467)">
      <stop
         stop-color="#ffd75d"
         stop-opacity="1"
         id="stop7" />
      <stop
         offset="1"
         stop-color="#ffdd72"
         stop-opacity="1"
         id="stop9" />
    </linearGradient>
    <clipPath
       id="clipPath-408740114">
      <g
         transform="translate(0,-1004.3622)"
         id="g12">
        <rect
           rx="4"
           y="1005.36"
           x="1"
           height="46"
           width="46"
           fill="#1890d0"
           id="rect14" />
      </g>
    </clipPath>
    <clipPath
       id="clipPath-443049222">
      <g
         transform="translate(0,-1004.3622)"
         id="g17">
        <rect
           rx="4"
           y="1005.36"
           x="1"
           height="46"
           width="46"
           fill="#1890d0"
           id="rect19" />
      </g>
    </clipPath>
    <linearGradient
       id="linearGradient3764-2"
       x1="1"
       x2="47"
       gradientUnits="userSpaceOnUse"
       gradientTransform="translate(-48.000001,0.00221467)">
      <stop
         stop-color="#60c3e0"
         stop-opacity="1"
         id="stop7-7" />
      <stop
         offset="1"
         stop-color="#71cae3"
         stop-opacity="1"
         id="stop9-0" />
    </linearGradient>
  </defs>
  <g
     id="g4164"
     transform="matrix(0.91446009,0,0,0.91446009,1.6809742,1.494981)">
    <path
       sodipodi:nodetypes="ssssssssssssssssssss"
       inkscape:connector-curvature="0"
       id="path3229"
       d="M 22.275144,47.328576 C 19.037979,46.990149 16.476865,46.277322 13.849547,44.983504 11.401366,43.777903 9.5062183,42.39001 7.5291023,40.354789 4.0129503,36.735305 1.9265893,32.479829 1.1951189,27.435593 c -0.22724611,-1.567099 -0.22724611,-4.663508 0,-6.230607 0.3217664,-2.218917 0.9305324,-4.331966 1.8423714,-6.394949 0.251488,-0.568976 2.243274,-2.78324 3.191347,-5.1105661 1.03744,-2.5467 0.26063,0.4704171 0.339771,0.4704171 0.0779,0 -0.09583,-2.0556671 0.138548,-1.3723161 0.2176,0.634427 0.628981,0.02787 0.67671,0.07692 0.04992,0.0513 1.055106,-1.3209443 1.419257,-1.6518991 C 11.48519,4.7850184 15.016393,2.9113121 18.559764,2.045579 c 2.099181,-0.5128791 3.20322,-0.6396423 5.571018,-0.6396423 2.437945,0 3.605909,0.1410406 5.777957,0.6977284 3.900519,0.9996897 7.661312,3.1550607 10.580331,6.0637638 3.724643,3.7114771 5.852565,8.0292941 6.625834,13.4446341 0.183928,1.288081 0.155868,4.535619 -0.05114,5.91798 -0.462001,3.085256 -1.373917,5.757373 -2.826403,8.281984 -3.52959,6.134895 -9.526235,10.227359 -16.595918,11.326031 -1.011368,0.157174 -4.500403,0.281045 -5.366304,0.19052 z"
       style="fill:#ff6600;fill-opacity:1" />
    <path
       inkscape:connector-curvature="0"
       id="path2991"
       d="M 22.810864,47.767821 C 15.390063,47.258965 8.7365543,43.408762 4.6630713,37.266197 3.8173723,35.990933 2.5885153,33.557511 2.1145833,32.219595 1.1288775,29.43694 0.79808949,27.413654 0.79617019,24.155438 0.79378019,20.097417 1.2301815,18.125429 3.1219123,13.646019 c 0.495464,-1.173202 1.501258,-3.619021 2.235098,-5.4351491 0.73384,-1.8161287 1.360738,-3.2762379 1.393106,-3.244689 0.03237,0.031544 0.409319,1.0492304 0.837667,2.2615135 l 0.778813,2.2041525 0.310165,-0.03532 c 0.170592,-0.01942 1.103564,-0.04127 2.0732727,-0.04855 1.550537,-0.01163 1.84258,0.01368 2.422275,0.209929 0.36254,0.122738 0.72241,0.198809 0.799709,0.16905 0.0773,-0.02976 0.637724,-0.822402 1.245388,-1.761425 0.607667,-0.9390228 1.138144,-1.7073145 1.178841,-1.7073145 0.0407,0 0.268661,1.3678574 0.506586,3.0396835 0.247963,1.7423531 0.487994,3.0941091 0.5624,3.1672031 0.164413,0.161511 4.871636,1.085983 4.983899,0.978808 0.08812,-0.08412 2.310833,0.332317 2.43417,0.456061 0.03972,0.03985 -0.02788,0.151188 -0.150223,0.247425 -0.12234,0.09624 -0.55709,0.452603 -0.966114,0.791924 -0.826776,0.685883 -0.8391,0.683832 -1.044172,-0.173813 -0.07348,-0.307344 -0.17519,-0.495161 -0.268128,-0.495161 -0.303742,0 -3.402564,0.733677 -3.496384,0.827803 -0.06033,0.06053 -0.04822,0.401449 0.03198,0.900257 0.07099,0.441558 0.125852,1.262499 0.121905,1.824317 l -0.0072,1.021484 1.130363,0.964746 c 0.621699,0.530609 1.1337,0.994036 1.137777,1.029838 0.0041,0.0358 -0.961,0.616112 -2.144617,1.289581 -2.573989,1.464583 -3.100769,1.841615 -3.546289,2.538184 -1.176171,1.838936 -0.912262,4.272714 0.631236,5.821293 1.88205,1.888247 4.99425,1.805526 6.738896,-0.179115 0.655929,-0.746163 0.889883,-1.271539 1.176264,-2.641482 l 0.05982,-0.286148 1.928783,0 1.928782,0 -0.07323,0.68607 c -0.409749,3.838779 -3.344711,6.95912 -7.133007,7.583545 -0.488658,0.08054 -0.513257,0.32591 -0.05185,0.517192 0.583435,0.241874 2.24897,0.473966 3.401267,0.473966 3.375023,0 6.34603,-1.246605 8.772146,-3.680707 2.443394,-2.451434 3.669237,-5.411216 3.690136,-8.909782 0.0098,-1.63895 -0.463996,-3.725283 -1.154234,-5.082699 -0.1265,-0.24877 -0.208558,-0.473821 -0.182354,-0.500111 0.06464,-0.06485 1.118874,1.191255 1.612865,1.921692 0.503369,0.7443 1.056823,1.848501 1.365661,2.724635 0.305492,0.866648 0.397965,0.993959 0.585387,0.805919 0.09153,-0.09184 0.182022,-0.652461 0.259478,-1.607601 0.443946,-5.474122 -1.647208,-11.383833 -5.450927,-15.4046719 -0.39251,-0.4149138 -0.653868,-0.7543889 -0.580795,-0.7543889 0.176235,0 1.290142,0.6220204 2.382604,1.3304786 2.917165,1.8917731 5.356549,4.6348112 6.936746,7.8002292 0.851915,1.706536 1.064462,1.368321 0.586977,-0.934023 C 42.628208,12.013987 41.366803,8.7896339 40.191388,6.8831313 L 39.903069,6.415483 40.330816,6.7553784 c 0.512672,0.4073814 1.692809,1.6632455 2.537771,2.7006115 0.997136,1.2241921 1.92217,2.6865851 2.716219,4.2940901 1.603768,3.246737 2.310056,6.074587 2.419443,9.687011 0.123727,4.086044 -0.623176,7.642287 -2.347197,11.175742 -3.079149,6.310842 -8.722489,10.850424 -15.587392,12.538716 -2.159918,0.531191 -4.992506,0.771678 -7.258783,0.616277 z"
       style="fill:#ffdd55;fill-opacity:1" />
    <path
       inkscape:connector-curvature="0"
       id="path2999"
       d="m 21.212412,17.015162 c 1.926369,-1.539058 1.949629,-1.563645 1.869976,-1.976946 -0.15849,-0.822367 -0.30249,-1.049363 -0.615254,-0.969846 -0.158644,0.04033 -1.015303,0.221251 -1.903689,0.402045 -0.888385,0.180792 -1.662809,0.371083 -1.720941,0.422865 -0.05813,0.05179 -0.03991,0.444179 0.0405,0.87199 0.0804,0.427811 0.147562,1.251776 0.149233,1.831031 0.0017,0.579255 0.054,1.036114 0.116295,1.015248 0.06229,-0.02088 0.991039,-0.739246 2.063886,-1.596387 z"
       style="fill:#ffffff" />
    <path
       inkscape:connector-curvature="0"
       id="path3227"
       d="m 28.131293,27.336245 c 0,-0.418052 -0.347108,-1.255102 -0.679308,-1.638155 -0.597429,-0.688879 -1.370161,-0.789165 -2.122439,-0.275453 -0.518307,0.353938 -0.898389,1.017187 -1.042394,1.818997 l -0.0658,0.366374 1.954968,0 c 1.902886,0 1.954973,-0.0073 1.954973,-0.271763 z"
       style="fill:#ffffff" />
    <path
       sodipodi:nodetypes="sssssss"
       inkscape:connector-curvature="0"
       id="path2989"
       d="m 22.691053,14.651093 c -0.268177,-0.882113 -0.289763,-1.081102 -0.211032,-1.227602 0.05206,-0.09686 2.28086,0.265186 2.411118,0.482072 0.02896,0.04823 -0.0304,0.148076 -0.150224,0.247425 -0.132642,0.109978 -0.536566,0.46139 -0.933103,0.79046 -0.396535,0.329069 -0.775674,0.562533 -0.808653,0.562533 -0.03298,0 -0.162049,-0.374469 -0.308106,-0.854889 z"
       style="fill:#000000" />
  </g>
</svg>
