<?xml version="1.0" encoding="UTF-8" standalone="no"?>
<svg
   xmlns:dc="http://purl.org/dc/elements/1.1/"
   xmlns:cc="http://creativecommons.org/ns#"
   xmlns:rdf="http://www.w3.org/1999/02/22-rdf-syntax-ns#"
   xmlns:svg="http://www.w3.org/2000/svg"
   xmlns="http://www.w3.org/2000/svg"
   xmlns:sodipodi="http://sodipodi.sourceforge.net/DTD/sodipodi-0.dtd"
   xmlns:inkscape="http://www.inkscape.org/namespaces/inkscape"
   viewBox="0 0 128 128"
   id="svg2"
   version="1.1"
   inkscape:version="0.91 r"
   width="100%"
   height="100%"
   sodipodi:docname="gmail.svg">
  <metadata
     id="metadata81">
    <rdf:RDF>
      <cc:Work
         rdf:about="">
        <dc:format>image/svg+xml</dc:format>
        <dc:type
           rdf:resource="http://purl.org/dc/dcmitype/StillImage" />
        <dc:title />
      </cc:Work>
    </rdf:RDF>
  </metadata>
  <sodipodi:namedview
     pagecolor="#ffffff"
     bordercolor="#666666"
     borderopacity="1"
     objecttolerance="10"
     gridtolerance="10"
     guidetolerance="10"
     inkscape:pageopacity="0"
     inkscape:pageshadow="2"
     inkscape:window-width="1078"
     inkscape:window-height="638"
     id="namedview79"
     showgrid="false"
     inkscape:zoom="1.7383042"
     inkscape:cx="-23.553788"
     inkscape:cy="20.63133"
     inkscape:window-x="270"
     inkscape:window-y="36"
     inkscape:window-maximized="0"
     inkscape:current-layer="svg2" />
  <defs
     id="defs4">
    <linearGradient
       id="linearGradient3764"
       x1="1"
       x2="47"
       gradientUnits="userSpaceOnUse"
       gradientTransform="matrix(0,-1,1,0,-1.5e-6,47.999998)">
      <stop
         stop-color="#cfcfcf"
         stop-opacity="1"
         id="stop7" />
      <stop
         offset="1"
         stop-color="#d9d9d9"
         stop-opacity="1"
         id="stop9" />
    </linearGradient>
    <clipPath
       id="clipPath-452906972">
      <g
         transform="translate(0,-1004.3622)"
         id="g12">
        <path
           d="m -24,13 c 0,1.105 -0.672,2 -1.5,2 -0.828,0 -1.5,-0.895 -1.5,-2 0,-1.105 0.672,-2 1.5,-2 0.828,0 1.5,0.895 1.5,2 z"
           transform="matrix(15.333333,0,0,11.5,414.99999,878.8622)"
           id="path14"
           inkscape:connector-curvature="0"
           style="fill:#1890d0" />
      </g>
    </clipPath>
    <clipPath
       id="clipPath-458231625">
      <g
         transform="translate(0,-1004.3622)"
         id="g17">
        <path
           d="m -24,13 c 0,1.105 -0.672,2 -1.5,2 -0.828,0 -1.5,-0.895 -1.5,-2 0,-1.105 0.672,-2 1.5,-2 0.828,0 1.5,0.895 1.5,2 z"
           transform="matrix(15.333333,0,0,11.5,414.99999,878.8622)"
           id="path19"
           inkscape:connector-curvature="0"
           style="fill:#1890d0" />
      </g>
    </clipPath>
  </defs>
  <g
     id="g33"
     transform="translate(0,80)" />
  <g
     id="g4172">
    <path
       d="m 9.891698,25.56735 109.573752,0 c 2.47601,0 4.45499,2.010904 4.45499,4.486915 l 0,73.094765 c 0,2.47601 -1.99722,4.455 -4.45499,4.455 l -109.573752,0 c -2.4942505,0 -4.486915,-1.99723 -4.486915,-4.455 l 0,-73.094765 c 0,-2.476011 1.9972244,-4.486915 4.486915,-4.486915 m 0,0"
       id="path63"
       inkscape:connector-curvature="0"
       style="fill:#f9f9f9;fill-opacity:1;fill-rule:nonzero;stroke:none" />
    <path
       d="m 114.84174,25.56735 0,82.07771 4.55987,0 c 2.49425,0 4.55987,-2.06562 4.55987,-4.55987 l 0,-72.957967 c 0,-2.476011 -2.06562,-4.541634 -4.55987,-4.541634 m -4.55987,0"
       id="path67"
       inkscape:connector-curvature="0"
       style="fill:#c02c1f;fill-opacity:1;fill-rule:nonzero;stroke:none" />
    <path
       d="m 9.964656,25.56735 c -2.476011,0 -4.5416335,2.065622 -4.5416335,4.541634 l 0,72.957966 c 0,2.49425 2.0656225,4.55987 4.5416335,4.55987 l 4.559873,0 0,-82.077709 m -4.559873,0"
       id="path69"
       inkscape:connector-curvature="0"
       style="fill:#ff493c;fill-opacity:1;fill-rule:nonzero;stroke:none" />
    <path
       d="m 9.964656,25.56735 c -2.476011,0 -4.5416335,2.065622 -4.5416335,4.541634 l 0,4.559873 59.2783485,39.47026 0,-15.106859 -50.158603,-33.487707 -4.5598725,0 m -0.018239,0.01824"
       id="path71"
       inkscape:connector-curvature="0"
       style="fill:#ff493c;fill-opacity:1;fill-rule:nonzero;stroke:none" />
    <path
       d="m 119.40161,25.56735 c 2.49425,0 4.55987,2.065622 4.55987,4.541634 l 0,4.559873 -59.278348,39.47026 0,-15.106859 50.140368,-33.487707 4.55987,0 m 0.0182,0.01824"
       id="path73"
       inkscape:connector-curvature="0"
       style="fill:#ff493c;fill-opacity:1;fill-rule:nonzero;stroke:none" />
  </g>
</svg>
