<?xml version="1.0" encoding="UTF-8" standalone="no"?>
<svg
   xmlns:dc="http://purl.org/dc/elements/1.1/"
   xmlns:cc="http://creativecommons.org/ns#"
   xmlns:rdf="http://www.w3.org/1999/02/22-rdf-syntax-ns#"
   xmlns:svg="http://www.w3.org/2000/svg"
   xmlns="http://www.w3.org/2000/svg"
   xmlns:sodipodi="http://sodipodi.sourceforge.net/DTD/sodipodi-0.dtd"
   xmlns:inkscape="http://www.inkscape.org/namespaces/inkscape"
   viewBox="0 0 48 48"
   id="svg2"
   version="1.1"
   inkscape:version="0.91 r"
   sodipodi:docname="gnome-software.svg">
  <metadata
     id="metadata118">
    <rdf:RDF>
      <cc:Work
         rdf:about="">
        <dc:format>image/svg+xml</dc:format>
        <dc:type
           rdf:resource="http://purl.org/dc/dcmitype/StillImage" />
      </cc:Work>
    </rdf:RDF>
  </metadata>
  <sodipodi:namedview
     pagecolor="#ffffff"
     bordercolor="#666666"
     borderopacity="1"
     objecttolerance="10"
     gridtolerance="10"
     guidetolerance="10"
     inkscape:pageopacity="0"
     inkscape:pageshadow="2"
     inkscape:window-width="1366"
     inkscape:window-height="714"
     id="namedview116"
     showgrid="false"
     inkscape:zoom="4.9166667"
     inkscape:cx="15.05642"
     inkscape:cy="24"
     inkscape:window-x="0"
     inkscape:window-y="0"
     inkscape:window-maximized="1"
     inkscape:current-layer="svg2" />
  <defs
     id="defs4">
    <linearGradient
       id="linearGradient3764"
       x1="1"
       x2="47"
       gradientUnits="userSpaceOnUse"
       gradientTransform="translate(-48.000001,0.00221467)">
      <stop
         stop-color="#e2e3d5"
         stop-opacity="1"
         id="stop7" />
      <stop
         offset="1"
         stop-color="#eaebe1"
         stop-opacity="1"
         id="stop9" />
    </linearGradient>
    <clipPath
       id="clipPath-698503385">
      <g
         transform="translate(0,-1004.3622)"
         id="g12">
        <rect
           rx="4"
           y="1005.36"
           x="1"
           height="46"
           width="46"
           fill="#1890d0"
           id="rect14" />
      </g>
    </clipPath>
    <clipPath
       id="clipPath-712525164">
      <g
         transform="translate(0,-1004.3622)"
         id="g17">
        <rect
           rx="4"
           y="1005.36"
           x="1"
           height="46"
           width="46"
           fill="#1890d0"
           id="rect19" />
      </g>
    </clipPath>
    <linearGradient
       id="linear0"
       gradientUnits="userSpaceOnUse"
       y1="34"
       x2="0"
       y2="19"
       gradientTransform="matrix(1,0,0,1.090909,62.644071,-26.260401)">
      <stop
         stop-color="#000"
         stop-opacity="0.059"
         id="stop22" />
      <stop
         offset="1"
         stop-color="#000"
         stop-opacity="0"
         id="stop24" />
    </linearGradient>
    <linearGradient
       id="linearGradient26"
       gradientUnits="userSpaceOnUse"
       y1="34"
       x2="0"
       y2="19"
       gradientTransform="matrix(1,0,0,1.090909,0.00000295276,-3.090909)">
      <stop
         stop-color="#000"
         stop-opacity="0.059"
         id="stop28" />
      <stop
         offset="1"
         stop-color="#000"
         stop-opacity="0"
         id="stop30" />
    </linearGradient>
  </defs>
  <g
     id="g4299"
     transform="matrix(1.4187213,0,0,1.4187213,-10.397626,-7.9087316)">
    <path
       sodipodi:nodetypes="ccccc"
       inkscape:connector-curvature="0"
       id="rect4246-1"
       d="m 9.9661018,10.779661 28.0677952,0 1.914756,27.152937 -31.40628,0.0086 z"
       style="opacity:1;fill:#c19a69;fill-opacity:1;stroke:none;stroke-width:0.40000001;stroke-miterlimit:4;stroke-dasharray:none;stroke-opacity:1" />
    <path
       style="fill:#000000;fill-opacity:0.25100002;fill-rule:nonzero;stroke:none"
       inkscape:connector-curvature="0"
       d="m 16.961521,16.335077 c 0,0.828 -0.672,1.5 -1.5,1.5 -0.828,0 -1.5,-0.672 -1.5,-1.5 0,-0.828 0.672,-1.5 1.5,-1.5 0.828,0 1.5,0.672 1.5,1.5 m 0,0"
       id="use94-9" />
    <path
       style="fill:#000000;fill-opacity:0.25100002;fill-rule:nonzero;stroke:none"
       inkscape:connector-curvature="0"
       d="m 35.124521,16.440077 c 0,0.828 -0.672,1.5 -1.5,1.5 -0.828,0 -1.5,-0.672 -1.5,-1.5 0,-0.828 0.672,-1.5 1.5,-1.5 0.828,0 1.5,0.672 1.5,1.5 m 0,0"
       id="use96-6" />
    <path
       style="fill:#ffffff;fill-opacity:1;fill-rule:nonzero;stroke:none"
       inkscape:connector-curvature="0"
       id="path98-6"
       d="m 15.225854,17.30238 c 3,16 16,16 18.996,0 0.211,-1.344 -0.711,-1.371 -0.996,0 -2,14.578 -15,14.5 -17,0 -0.184,-1.316 -1.18,-1.262 -0.996,0 m 0,0" />
  </g>
  <g
     id="g4396"
     transform="matrix(0.78320748,0,0,0.78289426,-29.350246,43.151295)">
    <path
       style="fill:#527fb2;fill-opacity:1;fill-rule:nonzero;stroke:none"
       inkscape:connector-curvature="0"
       id="path86"
       d="m 86.644068,-15.169492 c -5.523,0 -10,4.48 -10,10 0,5.523 4.477,10 10,10 5.523,0 9.996,-4.48 9.996,-10 0,-5.523 -4.477,-10 -9.996,-10 m 0,0" />
    <path
       style="fill:#eaebde;fill-opacity:1;fill-rule:nonzero;stroke:none"
       inkscape:connector-curvature="0"
       id="path98"
       d="m 92.164068,-11.169492 c -3.586,0 -4.254,4.754 -2.234,4.754 2.02,0 5.82,-4.754 2.234,-4.754 m -5.699,0.586 c -2.02,0.246 -1.336,3.523 -0.262,3.582 1.074,0.059 2.281,-3.828 0.262,-3.582 m -3.371,1.293 c -0.09,0.008 -0.207,0.047 -0.309,0.086 -1.625,0.621 -0.254,3.172 0.656,3 0.852,-0.164 0.977,-3.215 -0.352,-3.082 m -2.539,1.996 c -0.141,-0.004 -0.273,0.063 -0.438,0.164 -1.297,0.832 0.418,2.816 1.184,2.504 0.668,-0.273 0.242,-2.637 -0.746,-2.668 m 7.406,1.539 c -2.781,-0.043 -6.426,1.273 -7.05,3.879 -0.676,2.816 2.777,6.707 6.398,6.707 1.781,0 3.82,-1.484 4.203,-3.375 0.297,-1.441 -3.418,-0.871 -3.285,0.086 0.164,1.145 -0.926,1.695 -1.969,0.957 -3.32,-2.348 5.488,-3.5 4.906,-6.707 -0.18,-1 -1.527,-1.52 -3.199,-1.543 m 0,-0.004" />
  </g>
</svg>
