<?xml version="1.0" encoding="UTF-8" standalone="no"?>
<!-- Created with Inkscape (http://www.inkscape.org/) -->

<svg
   xmlns:dc="http://purl.org/dc/elements/1.1/"
   xmlns:cc="http://creativecommons.org/ns#"
   xmlns:rdf="http://www.w3.org/1999/02/22-rdf-syntax-ns#"
   xmlns:svg="http://www.w3.org/2000/svg"
   xmlns="http://www.w3.org/2000/svg"
   xmlns:sodipodi="http://sodipodi.sourceforge.net/DTD/sodipodi-0.dtd"
   xmlns:inkscape="http://www.inkscape.org/namespaces/inkscape"
   id="svg2"
   version="1.1"
   inkscape:version="0.91 r"
   width="512"
   height="512"
   sodipodi:docname="libreoffice34-draw.svg"
   viewBox="0 0 512 512">
  <metadata
     id="metadata8">
    <rdf:RDF>
      <cc:Work
         rdf:about="">
        <dc:format>image/svg+xml</dc:format>
        <dc:type
           rdf:resource="http://purl.org/dc/dcmitype/StillImage" />
        <dc:title />
      </cc:Work>
    </rdf:RDF>
  </metadata>
  <defs
     id="defs6" />
  <sodipodi:namedview
     pagecolor="#ffffff"
     bordercolor="#666666"
     borderopacity="1"
     objecttolerance="10"
     gridtolerance="10"
     guidetolerance="10"
     inkscape:pageopacity="0"
     inkscape:pageshadow="2"
     inkscape:window-width="1366"
     inkscape:window-height="714"
     id="namedview4"
     showgrid="false"
     inkscape:zoom="0.27552306"
     inkscape:cx="396.50927"
     inkscape:cy="389.25415"
     inkscape:window-x="0"
     inkscape:window-y="0"
     inkscape:window-maximized="1"
     inkscape:current-layer="svg2" />
  <path
     inkscape:connector-curvature="0"
     id="path4203"
     d="m 257.77299,481.35944 -138.46737,0.0719 -3.14698,-0.3963 -3.14699,-0.39625 -4.04612,-1.14757 -4.04613,-1.14752 -3.37177,-1.83933 c -1.854473,-1.01166 -4.282147,-2.45443 -5.394832,-3.2062 -1.112684,-0.75177 -3.51186,-2.79613 -5.331506,-4.54302 l -3.308448,-3.17617 -1.925439,-2.69741 c -1.058992,-1.48358 -2.847015,-4.52766 -3.973384,-6.76463 l -2.047945,-4.06721 -0.906625,-3.35068 c -0.498644,-1.84288 -1.116217,-5.06498 -1.372382,-7.16024 l -0.465754,-3.80954 0.0036,-181.41304 0.0036,-181.413037 0.458948,-4.046125 0.458951,-4.046124 0.937488,-3.492196 0.937487,-3.492196 2.016538,-3.925698 c 1.109281,-2.159135 2.88482,-5.139537 3.945826,-6.623116 l 1.929098,-2.697416 3.308448,-3.196212 3.308444,-3.196213 3.146986,-2.02809 c 1.730842,-1.11545 4.197471,-2.557535 5.481391,-3.204634 1.28393,-0.647098 4.01506,-1.663399 6.06919,-2.258447 l 3.73478,-1.081905 4.04613,-0.49584 4.04612,-0.495839 73.06473,-0.0013 73.06472,-0.0013 13.92184,14.049043 c 7.65702,7.726974 33.44669,33.691255 57.3104,57.698395 23.8637,24.00715 55.47995,55.82043 70.25832,70.69619 l 26.86978,27.04683 -0.13533,121.26994 -0.13532,121.26994 -0.80351,3.37177 -0.80351,3.37177 -1.74973,3.99161 c -0.96236,2.19538 -2.59832,5.43228 -3.63547,7.19311 l -1.88574,3.2015 -4.3127,4.31623 -4.31269,4.31622 -4.35465,2.54906 -4.35464,2.54905 -2.86365,1.07789 c -1.57501,0.59285 -4.36962,1.44249 -6.21024,1.8881 l -3.34658,0.81026 -138.46737,0.0719 z M 434.56615,139.38793 c -0.30908,-0.0157 -0.96657,-0.1949 -1.4611,-0.39829 l -0.89914,-0.36979 -26.97358,-27.36262 C 390.39686,96.20779 370.26594,75.802362 360.49695,65.911835 350.72795,56.021309 339.64445,44.77812 335.86693,40.926972 l -6.8682,-7.002089 -0.27112,-1.670672 -0.27111,-1.670671 34.3415,0.150618 34.3415,0.150618 3.59655,0.964282 c 1.97811,0.530356 5.09166,1.583838 6.919,2.341073 l 3.32245,1.376789 3.81401,2.537757 3.81401,2.537757 3.34102,3.395652 3.34101,3.395652 1.94489,2.945077 c 1.06968,1.619793 2.50373,4.057762 3.18678,5.417709 0.68305,1.359948 1.72752,3.888775 2.32105,5.619617 l 1.07916,3.146986 0.65169,4.270909 0.65169,4.270909 0.003,33.155745 0.003,33.15574 -0.56197,-0.0285 z"
     style="fill:#ffc831;fill-opacity:1;stroke-width:0.44956937"
     sodipodi:nodetypes="cccccccsscsscssccccccccscccssscccccssscccccsscccccscccccscssscccccsscccccsssccccccc" />
  <path
     inkscape:connector-curvature="0"
     id="path4201"
     d="m 381.02468,145.7104 c -0.0853,0 -0.5405,-0.45519 -1.01153,-1.01153 l -0.85643,-1.01153 1.01153,0.85642 c 0.55635,0.47104 1.01154,0.92622 1.01154,1.01153 0,0.0853 -0.0698,0.15511 -0.15511,0.15511 z m 53.54147,-6.32247 c -0.30908,-0.0157 -0.96657,-0.1949 -1.4611,-0.39829 l -0.89914,-0.36979 -26.97358,-27.36262 C 390.39686,96.20779 370.26594,75.802362 360.49695,65.911835 350.72795,56.021309 339.64445,44.77812 335.86693,40.926972 l -6.8682,-7.002089 -0.27112,-1.670672 -0.27111,-1.670671 34.3415,0.150618 34.3415,0.150618 3.59655,0.964282 c 1.97811,0.530356 5.09166,1.583838 6.919,2.341073 l 3.32245,1.376789 3.81401,2.537757 3.81401,2.537757 3.34102,3.395652 3.34101,3.395652 1.94489,2.945077 c 1.06968,1.619793 2.50373,4.057762 3.18678,5.417709 0.68305,1.359948 1.72752,3.888775 2.32105,5.619617 l 1.07916,3.146986 0.65169,4.270909 0.65169,4.270909 0.003,33.155745 0.003,33.15574 -0.56197,-0.0285 z m -357.420367,-38.51205 -0.180574,1.45108 0.0036,-3.146991 0.0036,-3.146985 0.176946,1.69591 c 0.09732,0.932753 0.09569,2.348896 -0.0036,3.146986 z"
     style="fill:#d6af2c;stroke-width:0.44956937" />
  <path
     inkscape:connector-curvature="0"
     id="path4199"
     d="m 433.97492,138.96686 -1.20376,0 -7.62968,-7.75507 C 420.94516,126.9465 405.44491,111.21719 390.6965,96.257768 375.94809,81.298347 357.00058,62.092278 348.59092,53.577615 340.18127,45.062952 332.57412,37.371466 331.68615,36.485424 330.79818,35.599382 329.83722,34.4364 329.5507,33.901018 l -0.52096,-0.973421 0,-1.179487 0,-1.179487 33.60531,0.173044 33.60531,0.173044 3.34658,0.788789 c 1.84062,0.433835 4.64688,1.278221 6.23613,1.876414 l 2.88955,1.087624 4.32875,2.552523 4.32875,2.552523 4.29918,4.303022 4.29919,4.303023 1.89925,3.201502 c 1.04458,1.760826 2.68662,4.997726 3.64898,7.19311 l 1.74973,3.991609 0.78462,3.37177 0.78463,3.37177 0.17149,34.72923 0.17149,34.72924 -1.20376,0 z"
     style="fill:#dbb035;fill-opacity:1;stroke-width:0.44956937" />
  <text
     xml:space="preserve"
     style="font-style:normal;font-weight:normal;font-size:254.89549255px;line-height:125%;font-family:Sans;letter-spacing:0px;word-spacing:0px;fill:#ffffff;fill-opacity:1;stroke:none;stroke-width:1px;stroke-linecap:butt;stroke-linejoin:miter;stroke-opacity:1"
     x="145.56668"
     y="393.08792"
     id="text4136"
     sodipodi:linespacing="125%"><tspan
       sodipodi:role="line"
       id="tspan4138"
       x="145.56668"
       y="393.08792"
       style="font-style:normal;font-variant:normal;font-weight:normal;font-stretch:normal;font-family:serif;-inkscape-font-specification:serif;fill:#ffffff">D</tspan></text>
</svg>
