<?xml version="1.0" encoding="UTF-8" standalone="no"?>
<!-- Created with Inkscape (http://www.inkscape.org/) -->

<svg
   xmlns:dc="http://purl.org/dc/elements/1.1/"
   xmlns:cc="http://creativecommons.org/ns#"
   xmlns:rdf="http://www.w3.org/1999/02/22-rdf-syntax-ns#"
   xmlns:svg="http://www.w3.org/2000/svg"
   xmlns="http://www.w3.org/2000/svg"
   xmlns:sodipodi="http://sodipodi.sourceforge.net/DTD/sodipodi-0.dtd"
   xmlns:inkscape="http://www.inkscape.org/namespaces/inkscape"
   id="svg2997"
   version="1.1"
   inkscape:version="0.91 r"
   width="512"
   height="512"
   sodipodi:docname="libreoffice4.2-base.svg"
   viewBox="0 0 512 512">
  <metadata
     id="metadata3003">
    <rdf:RDF>
      <cc:Work
         rdf:about="">
        <dc:format>image/svg+xml</dc:format>
        <dc:type
           rdf:resource="http://purl.org/dc/dcmitype/StillImage" />
        <dc:title />
      </cc:Work>
    </rdf:RDF>
  </metadata>
  <defs
     id="defs3001" />
  <sodipodi:namedview
     pagecolor="#ffffff"
     bordercolor="#666666"
     borderopacity="1"
     objecttolerance="10"
     gridtolerance="10"
     guidetolerance="10"
     inkscape:pageopacity="0"
     inkscape:pageshadow="2"
     inkscape:window-width="1366"
     inkscape:window-height="714"
     id="namedview2999"
     showgrid="true"
     inkscape:zoom="0.55104609"
     inkscape:cx="219.1067"
     inkscape:cy="369.98493"
     inkscape:window-x="0"
     inkscape:window-y="0"
     inkscape:window-maximized="1"
     inkscape:current-layer="g3415"
     showguides="true">
    <inkscape:grid
       type="xygrid"
       id="grid4144" />
  </sodipodi:namedview>
  <g
     id="g3415"
     transform="matrix(0.44567629,0,0,0.44567629,25.150996,28.293316)"
     style="fill:#d41a1a;fill-opacity:1">
    <path
       style="fill:#d41a1a;fill-opacity:1;stroke-width:0.47589168"
       d="m 112.91602,32.017578 -3.57032,0.939453 -3.56836,0.939453 -4.2832,2.097657 -4.283202,2.095703 -3.908204,3.126953 -3.90625,3.126953 -3.126953,3.908203 -3.128906,3.908203 -2.09375,4.283203 -2.09375,4.28125 -1.058594,3.570313 -1.058593,3.568359 -0.347657,13.564453 -0.345703,13.5625 0.173828,114.451176 c 0.01482,9.67564 0.01535,15.70465 0.0293,25.75586 l -0.201172,-0.77149 0,1.66602 0,1.66601 0.203125,-0.77929 c 0.0033,2.42551 0.0026,3.77871 0.0059,6.20898 l -0.132813,-2.57422 0,6.42383 0,6.42383 0.140625,-2.73438 c 0.06465,49.3814 0.137065,104.26494 0.140625,126.2793 l 0.0078,51.80664 -0.126954,-80.80469 -0.128906,-82.17187 0.03906,87.80078 0.03516,83.11328 -0.21875,-0.54688 -0.03906,0.91407 -0.03711,0.91211 0.287109,-0.28907 0.0078,-0.008 0.002,3.70703 0.216797,0.86133 c -0.01367,0.03 -0.03711,0.0549 -0.03711,0.0898 0,0.0799 0.04654,0.14039 0.107422,0.1836 l 0.433593,1.7207 c 0.01926,0.0763 0.05537,0.19654 0.07617,0.27735 -0.07888,0.0389 -0.140625,0.10381 -0.140625,0.19726 0,0.13087 0.10546,0.23828 0.236328,0.23828 0,-1.1e-4 0.01571,-0.0178 0.01758,-0.0195 0.276587,1.04853 0.600137,2.19197 0.947266,3.35742 -0.0046,-2.7e-4 -0.007,-0.006 -0.01172,-0.006 -0.130873,0 -0.238281,0.10741 -0.238281,0.23828 0,0.13087 0.107408,0.23633 0.238281,0.23633 0.05313,0 0.097,-0.025 0.136719,-0.0547 0.126091,0.41705 0.265122,0.90343 0.375,1.24609 l 0.388672,1.21094 c -0.103209,0.026 -0.1875,0.10582 -0.1875,0.21679 0,0.13087 0.107413,0.23633 0.238281,0.23633 0.03258,0 0.05563,-0.0212 0.08398,-0.0332 l 0.392578,1.22461 0.01953,-1.65235 0.455078,3.07813 1.810547,3.21484 1.808594,3.21485 2.863281,3.56054 2.863281,3.5586 3.800781,3.04101 3.800782,3.04102 3.353519,1.72656 3.35351,1.72461 152.1875,0 152.1875,0 3.35352,-1.72461 3.35351,-1.72656 3.75782,-3.00586 3.75585,-3.00586 2.63086,-3.24023 c 1.44678,-1.78219 3.19529,-4.14476 3.88477,-5.25196 l 1.25391,-2.01367 0,-28.57031 c 9.6e-4,15.44536 0.0847,28.07617 0.1875,28.07617 0.0786,0 0.65715,-1.2999 1.33593,-2.91406 0.0403,0.0314 0.0859,0.0586 0.14063,0.0586 0.13087,0 0.23828,-0.10741 0.23828,-0.23828 0,-0.119 -0.0926,-0.20952 -0.20703,-0.22656 0.1606,-0.38646 0.28524,-0.66082 0.45508,-1.08203 l 0.35547,-0.87891 c 0.0351,0.0204 0.068,0.0449 0.11132,0.0449 0.13088,0 0.23828,-0.10546 0.23828,-0.23633 10e-6,-0.11032 -0.0833,-0.19018 -0.18554,-0.21679 l 1.25586,-3.11524 -0.24805,-24.41992 c -0.13634,-13.43064 -0.35846,-24.52839 -0.49219,-24.66211 l -0.18945,-0.18945 0.33398,-0.16016 -0.0215,-98.77734 -0.0215,-98.7793 -84.00586,-84.4707 -84.00586,-84.470705 -76.22852,-0.07617 z m 318.15234,367.779302 -0.9707,0.50195 0,-0.0391 z m -354.556641,30.33398 0.0078,0.0508 -0.0078,-0.002 z m 27.837891,47.27539 1.25,0.5332 c -0.0323,0.0406 -0.0605,0.0869 -0.0605,0.14258 0,0.13085 0.10742,0.23828 0.23828,0.23828 0.12488,0 0.22324,-0.10004 0.23243,-0.22265 0.54803,0.2198 1.42522,0.51312 2.43164,0.82617 -0.0205,0.0351 -0.0469,0.0679 -0.0469,0.11133 0,0.13085 0.10741,0.23632 0.23828,0.23632 0.12396,0 0.21998,-0.0974 0.23047,-0.21875 0.45773,0.13894 0.91097,0.28479 1.34961,0.40625 l 3.00781,0.83399 1.375,0.13476 c -0.002,0.0132 -0.0156,0.0213 -0.0156,0.0352 0,0.13085 0.10741,0.23633 0.23828,0.23633 0.12709,0 0.22844,-0.10089 0.23437,-0.22656 l 2.06055,0.20117 2.45703,0.24023 -0.46875,0.1875 0.91211,0.0371 0.91211,0.0371 -0.14258,-0.14258 0.22266,0.0215 137.5332,-0.0742 133.1211,-0.0723 -0.26954,0.26758 0.63477,0 0.63477,0 -0.26758,-0.26758 3.67773,-0.002 0.91797,-0.22266 c 0.0132,0.002 0.0213,0.0156 0.0352,0.0156 0.0556,0 0.10194,-0.0263 0.14258,-0.0586 l 2.41796,-0.58398 c 1.93248,-0.46729 4.50254,-1.253 5.71094,-1.74414 l 0.53711,-0.21875 c 0.007,0.12441 0.10625,0.22656 0.23242,0.22656 0.13087,0 0.23828,-0.10743 0.23828,-0.23828 0,-0.0594 -0.0281,-0.11052 -0.0645,-0.15234 l 1.25391,-0.50977 -151.57227,-0.006 z"
       id="path3421"
       transform="matrix(2.243781,0,0,2.243781,-56.433327,-63.484005)"
       inkscape:connector-curvature="0"
       sodipodi:nodetypes="cccccccccccccccccccccccccccccccccccccccscccscccssscccssccccccccccccccccccccccscsscccscccscccccccccccccccccccssccssccccssccccccccccccccccsccccsscccc" />
    <path
       style="fill:#d41a1a;fill-opacity:1;stroke-width:1.06779671"
       d="m 916.87265,738.31732 -0.38403,6.09798 0.004,-12.81356 0.004,-12.81356 0.38019,6.71558 c 0.20911,3.69356 0.20739,9.45966 -0.004,12.81356 z M 816.47629,287.93222 c -0.16688,0 -2.92981,-2.76292 -6.13983,-6.13983 l -5.8364,-6.13983 6.13983,5.83641 c 3.3769,3.21002 6.13983,5.97294 6.13983,6.13983 0,0.16688 -0.13654,0.30342 -0.30343,0.30342 z m 94.80343,-36.30508 c -0.29364,0 -0.53389,-0.24026 -0.53389,-0.5339 0,-0.29365 0.24025,-0.5339 0.53389,-0.5339 0.29365,0 0.5339,0.24025 0.5339,0.5339 0,0.29364 -0.24025,0.5339 -0.5339,0.5339 z m 8.54238,-1.0678 c -0.29365,0 -0.5339,-0.24026 -0.5339,-0.5339 0,-0.29364 0.24025,-0.5339 0.5339,-0.5339 0.29364,0 0.5339,0.24026 0.5339,0.5339 0,0.29364 -0.24026,0.5339 -0.5339,0.5339 z m -12.58309,-1.0678 c -0.16689,0 -2.92981,-2.76292 -6.13983,-6.13983 l -5.83641,-6.13983 6.13983,5.83641 c 3.37691,3.21002 6.13984,5.97294 6.13984,6.13983 0,0.16688 -0.13654,0.30342 -0.30343,0.30342 z m -70.70505,-71.54238 c -0.29365,0 -0.5339,-0.24025 -0.5339,-0.53389 0,-0.29365 0.24025,-0.5339 0.5339,-0.5339 0.29364,0 0.53389,0.24025 0.53389,0.5339 0,0.29364 -0.24025,0.53389 -0.53389,0.53389 z m -1.89729,-2.13559 c -0.16257,0 -3.64625,-3.48369 -7.74152,-7.74153 l -7.44594,-7.74152 7.74153,7.44594 c 4.25783,4.09526 7.74152,7.57895 7.74152,7.74152 0,0.16258 -0.13301,0.29559 -0.29559,0.29559 z M 631.64773,102.1356 c -0.22172,0 -1.06261,-0.84089 -1.86864,-1.86864 l -1.46549,-1.868648 1.86865,1.465492 c 1.02775,0.806016 1.86864,1.646906 1.86864,1.868646 0,0.22173 -0.18142,0.40315 -0.40316,0.40315 z m 289.42013,-2.491525 -0.71186,0.711865 0,-1.42373 0,-1.423729 0.71186,0.711864 0.71186,0.711865 -0.71186,0.711865 z M 759.06524,98.93221 c -0.29364,0 -4.11365,-3.603814 -8.48892,-8.008475 -4.37526,-4.404662 -7.71476,-8.008475 -7.42112,-8.008475 0.29364,0 4.11366,3.603813 8.48892,8.008475 4.37527,4.404661 7.71477,8.008475 7.42112,8.008475 z M 626.42387,96.796617 c -0.15842,0 -4.84338,-4.684958 -10.41102,-10.411018 l -10.12298,-10.411018 10.41102,10.12298 c 5.72606,5.567638 10.41102,10.252596 10.41102,10.411017 0,0.158421 -0.12962,0.288039 -0.28804,0.288039 z M 919.8221,91.457633 c -0.29365,0 -0.5339,-0.240254 -0.5339,-0.533898 0,-0.293644 0.24025,-0.533899 0.5339,-0.533899 0.29364,0 0.5339,0.240255 0.5339,0.533899 0,0.293644 -0.24026,0.533898 -0.5339,0.533898 z m -1.0678,-5.338983 c -0.29364,0 -0.5339,-0.240255 -0.5339,-0.533899 0,-0.293644 0.24026,-0.533898 0.5339,-0.533898 0.29364,0 0.5339,0.240254 0.5339,0.533898 0,0.293644 -0.24026,0.533899 -0.5339,0.533899 z m -1.0678,-4.271187 c -0.29364,0 -0.53389,-0.240254 -0.53389,-0.533898 0,-0.293644 0.24025,-0.533899 0.53389,-0.533899 0.29365,0 0.5339,0.240255 0.5339,0.533899 0,0.293644 -0.24025,0.533898 -0.5339,0.533898 z m -1.06779,-3.20339 c -0.29365,0 -0.5339,-0.240254 -0.5339,-0.533898 0,-0.293644 0.24025,-0.533899 0.5339,-0.533899 0.29364,0 0.5339,0.240255 0.5339,0.533899 0,0.293644 -0.24026,0.533898 -0.5339,0.533898 z m -1.0678,-3.20339 c -0.29364,0 -0.5339,-0.240254 -0.5339,-0.533898 0,-0.293645 0.24026,-0.533899 0.5339,-0.533899 0.29364,0 0.5339,0.240254 0.5339,0.533899 0,0.293644 -0.24026,0.533898 -0.5339,0.533898 z m -1.0678,-3.20339 c -0.29364,0 -0.53389,-0.240254 -0.53389,-0.533898 0,-0.293645 0.24025,-0.533899 0.53389,-0.533899 0.29365,0 0.5339,0.240254 0.5339,0.533899 0,0.293644 -0.24025,0.533898 -0.5339,0.533898 z m -2.13559,-5.338984 c -0.29364,0 -0.5339,-0.240254 -0.5339,-0.533898 0,-0.293644 0.24026,-0.533898 0.5339,-0.533898 0.29364,0 0.5339,0.240254 0.5339,0.533898 0,0.293644 -0.24026,0.533898 -0.5339,0.533898 z m -1.0678,-2.135593 c -0.29364,0 -0.53389,-0.240254 -0.53389,-0.533898 0,-0.293644 0.24025,-0.533899 0.53389,-0.533899 0.29365,0 0.5339,0.240255 0.5339,0.533899 0,0.293644 -0.24025,0.533898 -0.5339,0.533898 z m -1.06779,-2.135593 c -0.29365,0 -0.5339,-0.240255 -0.5339,-0.533899 0,-0.293644 0.24025,-0.533898 0.5339,-0.533898 0.29364,0 0.5339,0.240254 0.5339,0.533898 0,0.293644 -0.24026,0.533899 -0.5339,0.533899 z m -1.0678,-2.135594 c -0.29364,0 -0.5339,-0.240254 -0.5339,-0.533898 0,-0.293644 0.24026,-0.533898 0.5339,-0.533898 0.29364,0 0.5339,0.240254 0.5339,0.533898 0,0.293644 -0.24026,0.533898 -0.5339,0.533898 z m -3.20339,-5.338983 c -0.29364,0 -0.5339,-0.240254 -0.5339,-0.533898 0,-0.293644 0.24026,-0.533899 0.5339,-0.533899 0.29364,0 0.5339,0.240255 0.5339,0.533899 0,0.293644 -0.24026,0.533898 -0.5339,0.533898 z m -2.13559,-3.20339 c -0.29365,0 -0.5339,-0.240254 -0.5339,-0.533898 0,-0.293644 0.24025,-0.533899 0.5339,-0.533899 0.29364,0 0.5339,0.240255 0.5339,0.533899 0,0.293644 -0.24026,0.533898 -0.5339,0.533898 z m -2.1356,-3.20339 c -0.29364,0 -0.53389,-0.240254 -0.53389,-0.533898 0,-0.293645 0.24025,-0.533899 0.53389,-0.533899 0.29365,0 0.5339,0.240254 0.5339,0.533899 0,0.293644 -0.24025,0.533898 -0.5339,0.533898 z m -3.14036,-4.271187 c -0.25899,0 -0.81374,-0.554751 -1.23279,-1.23278 l -0.7619,-1.23278 1.23278,0.761899 c 0.67803,0.419046 1.23278,0.973797 1.23278,1.232781 0,0.258984 -0.21189,0.47088 -0.47087,0.47088 z M 884.64783,30.593222 c -0.25899,0 -0.81374,-0.554751 -1.23278,-1.232779 l -0.76191,-1.232781 1.23278,0.761899 c 0.67803,0.419046 1.23279,0.973797 1.23279,1.232781 0,0.258985 -0.2119,0.47088 -0.47088,0.47088 z m -5.40201,-4.271186 c -0.29364,0 -0.53389,-0.240255 -0.53389,-0.533899 0,-0.293644 0.24025,-0.533898 0.53389,-0.533898 0.29365,0 0.5339,0.240254 0.5339,0.533898 0,0.293644 -0.24025,0.533899 -0.5339,0.533899 z m -3.20339,-2.135594 c -0.29364,0 -0.53389,-0.240254 -0.53389,-0.533898 0,-0.293644 0.24025,-0.533898 0.53389,-0.533898 0.29365,0 0.5339,0.240254 0.5339,0.533898 0,0.293644 -0.24025,0.533898 -0.5339,0.533898 z m -3.20339,-2.135593 c -0.29364,0 -0.53389,-0.240254 -0.53389,-0.533898 0,-0.293645 0.24025,-0.533899 0.53389,-0.533899 0.29365,0 0.5339,0.240254 0.5339,0.533899 0,0.293644 -0.24025,0.533898 -0.5339,0.533898 z m -193.2712,-3.20339 c -0.29364,0 -0.53389,-0.240254 -0.53389,-0.533898 0,-0.293645 0.24025,-0.533899 0.53389,-0.533899 0.29365,0 0.5339,0.240254 0.5339,0.533899 0,0.293644 -0.24025,0.533898 -0.5339,0.533898 z m 187.93222,0 c -0.29364,0 -0.5339,-0.240254 -0.5339,-0.533898 0,-0.293645 0.24026,-0.533899 0.5339,-0.533899 0.29364,0 0.5339,0.240254 0.5339,0.533899 0,0.293644 -0.24026,0.533898 -0.5339,0.533898 z m -2.13559,-1.067797 c -0.29365,0 -0.5339,-0.240254 -0.5339,-0.533898 0,-0.293644 0.24025,-0.533898 0.5339,-0.533898 0.29364,0 0.53389,0.240254 0.53389,0.533898 0,0.293644 -0.24025,0.533898 -0.53389,0.533898 z m -2.1356,-1.067796 c -0.29364,0 -0.5339,-0.240255 -0.5339,-0.533899 0,-0.293644 0.24026,-0.533898 0.5339,-0.533898 0.29365,0 0.5339,0.240254 0.5339,0.533898 0,0.293644 -0.24025,0.533899 -0.5339,0.533899 z m -2.13559,-1.067797 c -0.29364,0 -0.5339,-0.240254 -0.5339,-0.533898 0,-0.293645 0.24026,-0.533899 0.5339,-0.533899 0.29364,0 0.5339,0.240254 0.5339,0.533899 0,0.293644 -0.24026,0.533898 -0.5339,0.533898 z m -5.33898,-2.135594 c -0.29365,0 -0.5339,-0.240254 -0.5339,-0.533898 0,-0.293644 0.24025,-0.533898 0.5339,-0.533898 0.29364,0 0.53389,0.240254 0.53389,0.533898 0,0.293644 -0.24025,0.533898 -0.53389,0.533898 z m -3.20339,-1.067796 c -0.29365,0 -0.5339,-0.240254 -0.5339,-0.533899 0,-0.293644 0.24025,-0.533898 0.5339,-0.533898 0.29364,0 0.53389,0.240254 0.53389,0.533898 0,0.293645 -0.24025,0.533899 -0.53389,0.533899 z m -3.20339,-1.067797 c -0.29365,0 -0.5339,-0.240254 -0.5339,-0.533898 0,-0.293644 0.24025,-0.533899 0.5339,-0.533899 0.29364,0 0.53389,0.240255 0.53389,0.533899 0,0.293644 -0.24025,0.533898 -0.53389,0.533898 z m -3.20339,-1.067797 c -0.29365,0 -0.5339,-0.240254 -0.5339,-0.5338979 0,-0.2936441 0.24025,-0.5338983 0.5339,-0.5338983 0.29364,0 0.53389,0.2402542 0.53389,0.5338983 0,0.2936439 -0.24025,0.5338979 -0.53389,0.5338979 z m -4.27119,-1.0677962 c -0.29364,0 -0.5339,-0.2402543 -0.5339,-0.5338984 0,-0.2936441 0.24026,-0.5338983 0.5339,-0.5338983 0.29364,0 0.5339,0.2402542 0.5339,0.5338983 0,0.2936441 -0.24026,0.5338984 -0.5339,0.5338984 z M 677.43225,8.1694921 c -0.29364,0 -0.5339,-0.2402543 -0.5339,-0.5338984 0,-0.293644 0.24026,-0.5338983 0.5339,-0.5338983 0.29365,0 0.5339,0.2402543 0.5339,0.5338983 0,0.2936441 -0.24025,0.5338984 -0.5339,0.5338984 z m 159.10171,0 c -0.29365,0 -0.5339,-0.2402543 -0.5339,-0.5338984 0,-0.293644 0.24025,-0.5338983 0.5339,-0.5338983 0.29364,0 0.53389,0.2402543 0.53389,0.5338983 0,0.2936441 -0.24025,0.5338984 -0.53389,0.5338984 z m -8.00848,-1.0677967 -1.42372,0 0.71185,-0.7118645 0.71187,-0.7118644 0.71187,0.7118644 0.71186,0.7118645 -1.42373,0 z"
       id="path3427"
       inkscape:connector-curvature="0" />
    <path
       style="fill:#d41a1a;fill-opacity:1;stroke-width:1.06779671"
       d="m 916.79668,860.98311 -0.71187,0.71186 0,-1.42373 0,-1.42372 0.71187,0.71185 0.71185,0.71187 -0.71185,0.71187 z m 0.0882,-31.94492 -0.30258,28.56356 0,-57.12712 0,-57.12712 0.30258,28.56356 c 0.16642,15.70996 0.16642,41.41716 0,57.12712 z M 804.7488,276.18646 c -0.15684,0 -5.56256,-5.40572 -12.01271,-12.01271 l -11.72756,-12.01272 12.01271,11.72756 c 6.60699,6.45015 12.01271,11.85588 12.01271,12.01271 0,0.15684 -0.12831,0.28516 -0.28515,0.28516 z m 107.59872,-24.55932 c -0.29364,0 -0.5339,-0.24026 -0.5339,-0.5339 0,-0.29365 0.24026,-0.5339 0.5339,-0.5339 0.29364,0 0.5339,0.24025 0.5339,0.5339 0,0.29364 -0.24026,0.5339 -0.5339,0.5339 z m 4.27119,0 c -0.29365,0 -0.5339,-0.24026 -0.5339,-0.5339 0,-0.29365 0.24025,-0.5339 0.5339,-0.5339 0.29364,0 0.5339,0.24025 0.5339,0.5339 0,0.29364 -0.24026,0.5339 -0.5339,0.5339 z M 857.06795,198.2373 c -0.15841,0 -4.84337,-4.68496 -10.41101,-10.41102 l -10.12298,-10.41101 10.41101,10.12298 c 5.72606,5.56764 10.41102,10.25259 10.41102,10.41101 0,0.15842 -0.12962,0.28804 -0.28804,0.28804 z m -21.60179,-21.35593 c -0.29364,0 -0.5339,-0.24026 -0.5339,-0.5339 0,-0.29364 0.24026,-0.5339 0.5339,-0.5339 0.29364,0 0.5339,0.24026 0.5339,0.5339 0,0.29364 -0.24026,0.5339 -0.5339,0.5339 z m -720.58948,-23.22458 -0.53858,1.33475 0,-2.6695 0,-2.66949 0.53858,1.33475 0.53859,1.33474 -0.53859,1.33475 z m 0.0899,-16.07375 -0.34669,11.00172 -0.002,-21.35594 -0.002,-21.35593 0.3484,10.35422 c 0.19161,5.69482 0.19239,15.30499 0.002,21.35593 z m 665.22106,-17.2949 c -0.15784,0 -5.08305,-4.92521 -10.94492,-10.94491 L 758.5848,98.398312 769.52971,109.05625 c 6.01971,5.86186 10.94492,10.78707 10.94492,10.94491 0,0.15784 -0.12914,0.28698 -0.28698,0.28698 z m 140.81348,-17.37394 -0.64513,0.64513 0.0842,-2.04661 0.0842,-2.046612 0.56083,1.401482 0.56083,1.40148 -0.64512,0.64513 z M 919.8221,92.52543 c -0.29365,0 -0.5339,-0.240254 -0.5339,-0.533899 0,-0.293644 0.24025,-0.533898 0.5339,-0.533898 0.29364,0 0.5339,0.240254 0.5339,0.533898 0,0.293645 -0.24026,0.533899 -0.5339,0.533899 z m -1.0678,-5.338984 c -0.29364,0 -0.5339,-0.240254 -0.5339,-0.533898 0,-0.293644 0.24026,-0.533898 0.5339,-0.533898 0.29364,0 0.5339,0.240254 0.5339,0.533898 0,0.293644 -0.24026,0.533898 -0.5339,0.533898 z m -1.0678,-4.271186 c -0.29364,0 -0.53389,-0.240255 -0.53389,-0.533899 0,-0.293644 0.24025,-0.533898 0.53389,-0.533898 0.29365,0 0.5339,0.240254 0.5339,0.533898 0,0.293644 -0.24025,0.533899 -0.5339,0.533899 z M 606.02061,76.50848 c -0.22172,0 -1.06261,-0.84089 -1.86864,-1.868645 l -1.46549,-1.868644 1.86865,1.465492 c 1.02775,0.80602 1.86864,1.64691 1.86864,1.868645 0,0.221733 -0.18142,0.403152 -0.40316,0.403152 z m -4.3389,-4.271187 c -0.25899,0 -0.81374,-0.554751 -1.23278,-1.23278 l -0.76191,-1.232781 1.23278,0.7619 c 0.67803,0.419046 1.23279,0.973796 1.23279,1.232781 0,0.258984 -0.2119,0.47088 -0.47088,0.47088 z M 913.41532,70.1017 c -0.29365,0 -0.5339,-0.240255 -0.5339,-0.533899 0,-0.293644 0.24025,-0.533898 0.5339,-0.533898 0.29364,0 0.5339,0.240254 0.5339,0.533898 0,0.293644 -0.24026,0.533899 -0.5339,0.533899 z m -316.0048,-2.135594 c -0.25898,0 -0.81373,-0.554751 -1.23278,-1.23278 l -0.76191,-1.232781 1.23279,0.7619 c 0.67803,0.419046 1.23278,0.973796 1.23278,1.232781 0,0.258984 -0.2119,0.47088 -0.47088,0.47088 z M 907.00854,57.288139 c -0.29365,0 -0.5339,-0.240254 -0.5339,-0.533898 0,-0.293644 0.24025,-0.533898 0.5339,-0.533898 0.29364,0 0.5339,0.240254 0.5339,0.533898 0,0.293644 -0.24026,0.533898 -0.5339,0.533898 z m -6.40678,-9.61017 c -0.29365,0 -0.5339,-0.240254 -0.5339,-0.533898 0,-0.293644 0.24025,-0.533898 0.5339,-0.533898 0.29364,0 0.5339,0.240254 0.5339,0.533898 0,0.293644 -0.24026,0.533898 -0.5339,0.533898 z m -4.27119,-5.338983 c -0.29364,0 -0.5339,-0.240254 -0.5339,-0.533899 0,-0.293644 0.24026,-0.533898 0.5339,-0.533898 0.29364,0 0.5339,0.240254 0.5339,0.533898 0,0.293645 -0.24026,0.533899 -0.5339,0.533899 z M 702.23944,41.271189 c -0.15731,0 -5.32277,-5.165466 -11.47881,-11.478814 l -11.19279,-11.478814 11.47882,11.192786 c 6.31335,6.156033 11.47881,11.321499 11.47881,11.478815 0,0.157315 -0.12871,0.286027 -0.28603,0.286027 z m 183.41316,-9.61017 c -0.29364,0 -0.53389,-0.240254 -0.53389,-0.533898 0,-0.293644 0.24025,-0.533899 0.53389,-0.533899 0.29365,0 0.5339,0.240255 0.5339,0.533899 0,0.293644 -0.24025,0.533898 -0.5339,0.533898 z m -5.33898,-4.271187 c -0.29364,0 -0.5339,-0.240254 -0.5339,-0.533898 0,-0.293644 0.24026,-0.533898 0.5339,-0.533898 0.29364,0 0.5339,0.240254 0.5339,0.533898 0,0.293644 -0.24026,0.533898 -0.5339,0.533898 z m -9.61017,-6.40678 c -0.29364,0 -0.5339,-0.240254 -0.5339,-0.533898 0,-0.293644 0.24026,-0.533898 0.5339,-0.533898 0.29364,0 0.5339,0.240254 0.5339,0.533898 0,0.293644 -0.24026,0.533898 -0.5339,0.533898 z m -193.2712,-6.40678 c -0.29364,0 -0.5339,-0.240254 -0.5339,-0.533898 0,-0.293644 0.24026,-0.533899 0.5339,-0.533899 0.29365,0 0.5339,0.240255 0.5339,0.533899 0,0.293644 -0.24025,0.533898 -0.5339,0.533898 z m 180.45764,0 c -0.29364,0 -0.5339,-0.240254 -0.5339,-0.533898 0,-0.293644 0.24026,-0.533899 0.5339,-0.533899 0.29364,0 0.5339,0.240255 0.5339,0.533899 0,0.293644 -0.24026,0.533898 -0.5339,0.533898 z m -12.81356,-4.271187 c -0.29364,0 -0.5339,-0.240254 -0.5339,-0.5338979 0,-0.2936441 0.24026,-0.5338983 0.5339,-0.5338983 0.29364,0 0.5339,0.2402542 0.5339,0.5338983 0,0.2936439 -0.24026,0.5338979 -0.5339,0.5338979 z m -4.27119,-1.0677962 c -0.29364,0 -0.5339,-0.2402543 -0.5339,-0.5338984 0,-0.2936441 0.24026,-0.5338983 0.5339,-0.5338983 0.29365,0 0.5339,0.2402542 0.5339,0.5338983 0,0.2936441 -0.24025,0.5338984 -0.5339,0.5338984 z m -5.33898,-1.0677967 c -0.29364,0 -0.5339,-0.2402543 -0.5339,-0.5338984 0,-0.293644 0.24026,-0.5338983 0.5339,-0.5338983 0.29364,0 0.5339,0.2402543 0.5339,0.5338983 0,0.2936441 -0.24026,0.5338984 -0.5339,0.5338984 z m -9.69915,-1.1520965 -2.04661,-0.0843 1.40148,-0.5608275 1.40148,-0.5608274 0.64513,0.6451271 0.64512,0.6451272 -2.0466,-0.0843 z"
       id="path3423"
       inkscape:connector-curvature="0" />
    <path
       style="fill:#a31f1f;fill-opacity:1;stroke-width:1.06779671"
       d="m 914.05683,251.48172 c -0.35283,-0.08 -1.68371,-0.34855 -2.95751,-0.59682 L 908.78333,250.43349 793.67709,133.6789 678.57086,16.924305 l -0.94051,-2.821533 -0.94052,-2.821535 0.67435,-2.6867971 0.67434,-2.686798 77.64603,0.3746211 77.64602,0.374621 10.67796,2.8971213 10.67797,2.8971207 9.61017,4.772191 9.61017,4.772189 8.80784,6.969834 8.80784,6.969833 6.96983,8.80784 6.96984,8.807838 4.77218,9.61017 4.7722,9.61017 2.89711,10.677967 2.89713,10.677967 0.37439,77.555825 0.37439,77.55582 -3.42563,1.19418 c -1.8841,0.65681 -3.71431,1.12875 -4.06713,1.04877 z"
       id="path3417"
       inkscape:connector-curvature="0" />
    <text
       xml:space="preserve"
       style="font-style:normal;font-weight:normal;font-size:605.36230469px;line-height:125%;font-family:Sans;letter-spacing:0px;word-spacing:0px;fill:#ffffff;fill-opacity:1;stroke:none;stroke-width:1px;stroke-linecap:butt;stroke-linejoin:miter;stroke-opacity:1"
       x="282.35175"
       y="804.56348"
       id="text4136"
       sodipodi:linespacing="125%"><tspan
         sodipodi:role="line"
         id="tspan4138"
         x="282.35175"
         y="804.56348"
         style="font-style:normal;font-variant:normal;font-weight:normal;font-stretch:normal;font-family:serif;-inkscape-font-specification:serif;fill:#ffffff">B</tspan></text>
  </g>
</svg>
