<?xml version="1.0" encoding="UTF-8" standalone="no"?>
<svg
   xmlns:dc="http://purl.org/dc/elements/1.1/"
   xmlns:cc="http://creativecommons.org/ns#"
   xmlns:rdf="http://www.w3.org/1999/02/22-rdf-syntax-ns#"
   xmlns:svg="http://www.w3.org/2000/svg"
   xmlns="http://www.w3.org/2000/svg"
   xmlns:sodipodi="http://sodipodi.sourceforge.net/DTD/sodipodi-0.dtd"
   xmlns:inkscape="http://www.inkscape.org/namespaces/inkscape"
   viewBox="0 0 48 48"
   id="svg2"
   version="1.1"
   inkscape:version="0.91 r"
   sodipodi:docname="softwarecenter-old.svg">
  <metadata
     id="metadata118">
    <rdf:RDF>
      <cc:Work
         rdf:about="">
        <dc:format>image/svg+xml</dc:format>
        <dc:type
           rdf:resource="http://purl.org/dc/dcmitype/StillImage" />
      </cc:Work>
    </rdf:RDF>
  </metadata>
  <sodipodi:namedview
     pagecolor="#ffffff"
     bordercolor="#666666"
     borderopacity="1"
     objecttolerance="10"
     gridtolerance="10"
     guidetolerance="10"
     inkscape:pageopacity="0"
     inkscape:pageshadow="2"
     inkscape:window-width="1366"
     inkscape:window-height="714"
     id="namedview116"
     showgrid="false"
     inkscape:zoom="3.4766083"
     inkscape:cx="-12.410704"
     inkscape:cy="-1.2288792"
     inkscape:window-x="0"
     inkscape:window-y="0"
     inkscape:window-maximized="1"
     inkscape:current-layer="svg2" />
  <defs
     id="defs4">
    <linearGradient
       id="linearGradient3764"
       x1="1"
       x2="47"
       gradientUnits="userSpaceOnUse"
       gradientTransform="translate(-48.000001,0.00221467)">
      <stop
         stop-color="#e2e3d5"
         stop-opacity="1"
         id="stop7" />
      <stop
         offset="1"
         stop-color="#eaebe1"
         stop-opacity="1"
         id="stop9" />
    </linearGradient>
    <clipPath
       id="clipPath-617640830">
      <g
         transform="translate(0,-1004.3622)"
         id="g12">
        <rect
           rx="4"
           y="1005.36"
           x="1"
           height="46"
           width="46"
           fill="#1890d0"
           id="rect14" />
      </g>
    </clipPath>
    <clipPath
       id="clipPath-631260269">
      <g
         transform="translate(0,-1004.3622)"
         id="g17">
        <rect
           rx="4"
           y="1005.36"
           x="1"
           height="46"
           width="46"
           fill="#1890d0"
           id="rect19" />
      </g>
    </clipPath>
    <linearGradient
       id="linear0"
       gradientUnits="userSpaceOnUse"
       y1="34"
       x2="0"
       y2="19"
       gradientTransform="matrix(1,0,0,1.090909,60.406783,-15.684126)">
      <stop
         stop-color="#000"
         stop-opacity="0.059"
         id="stop22" />
      <stop
         offset="1"
         stop-color="#000"
         stop-opacity="0"
         id="stop24" />
    </linearGradient>
    <linearGradient
       id="linearGradient26"
       gradientUnits="userSpaceOnUse"
       y1="34"
       x2="0"
       y2="19"
       gradientTransform="matrix(1,0,0,1.090909,0.00000295276,-3.090906)">
      <stop
         stop-color="#000"
         stop-opacity="0.059"
         id="stop28" />
      <stop
         offset="1"
         stop-color="#000"
         stop-opacity="0"
         id="stop30" />
    </linearGradient>
  </defs>
  <g
     id="g4465"
     transform="matrix(1.1761922,0,0,1.1761922,-4.2286142,-4.2286142)">
    <path
       sodipodi:nodetypes="ccccc"
       inkscape:connector-curvature="0"
       id="rect4246"
       d="m 6.6499483,7.4988267 34.1034857,0 2.326505,32.9918963 -38.1598778,0.01045 z"
       style="opacity:1;fill:#c19a69;fill-opacity:1;stroke:none;stroke-width:0.40000001;stroke-miterlimit:4;stroke-dasharray:none;stroke-opacity:1" />
    <path
       style="fill:#000000;fill-opacity:0.25100002;fill-rule:nonzero;stroke:none"
       inkscape:connector-curvature="0"
       d="m 15.070107,15.570911 c 0,1.006053 -0.816507,1.82256 -1.82256,1.82256 -1.006053,0 -1.82256,-0.816507 -1.82256,-1.82256 0,-1.006052 0.816507,-1.822559 1.82256,-1.822559 1.006053,0 1.82256,0.816507 1.82256,1.822559 m 0,0"
       id="use94" />
    <path
       style="fill:#000000;fill-opacity:0.25100002;fill-rule:nonzero;stroke:none"
       inkscape:connector-curvature="0"
       d="m 37.138873,15.698491 c 0,1.006052 -0.816507,1.822559 -1.82256,1.822559 -1.006053,0 -1.822559,-0.816507 -1.822559,-1.822559 0,-1.006053 0.816506,-1.82256 1.822559,-1.82256 1.006053,0 1.82256,0.816507 1.82256,1.82256 m 0,0"
       id="use96" />
    <path
       style="fill:#ffffff;fill-opacity:1;fill-rule:nonzero;stroke:none"
       inkscape:connector-curvature="0"
       id="path98-4"
       d="m 12.961202,16.746223 c 3.645119,19.440635 19.440635,19.440635 23.080894,0 0.256374,-1.633013 -0.863893,-1.665819 -1.210179,0 -2.43008,17.712849 -18.225596,17.618076 -20.655675,0 -0.223567,-1.598992 -1.433747,-1.53338 -1.21018,0 m 0,0" />
  </g>
  <path
     d="m 44.633204,35.263537 c 0,3.533114 -2.865458,6.399283 -6.399284,6.399283 -3.533116,0 -6.399283,-2.865458 -6.399283,-6.399283 0,-3.533117 2.865456,-6.399283 6.399283,-6.399283 3.533115,0 6.399284,2.865456 6.399284,6.399283 m 0,0"
     id="path86"
     inkscape:connector-curvature="0"
     style="fill:#eaebde;fill-opacity:1;fill-rule:nonzero;stroke:none" />
  <path
     d="m 38.30765,28.552015 c -3.897665,0 -7.057153,3.16012 -7.057153,7.058566 0,3.898445 3.161605,7.055741 7.057153,7.055741 3.897667,0 7.057154,-3.16012 7.057154,-7.055741 0,-3.901269 -3.161604,-7.058566 -7.057154,-7.058566 m 2.33239,1.965811 c 0.182074,-0.01411 0.366972,0.0113 0.534932,0.110115 0.449541,0.259049 0.609033,0.854792 0.350035,1.304422 -0.26182,0.449631 -0.835567,0.590097 -1.287225,0.331048 -0.449541,-0.25905 -0.609032,-0.835735 -0.350035,-1.28466 0.162315,-0.283754 0.455187,-0.438336 0.752293,-0.460219 m -2.33239,0.992435 c 0.380381,0 0.755117,0.04942 1.103034,0.146113 0.06352,0.377633 0.286521,0.730561 0.6422,0.940201 0.358504,0.206816 0.763585,0.225874 1.122088,0.09106 0.697247,0.686797 1.146787,1.629823 1.213125,2.666019 l -1.345094,0.01623 c -0.121382,-1.403242 -1.298516,-2.525554 -2.73747,-2.525554 -0.413548,0 -0.805221,0.09389 -1.158078,0.25905 l -0.661962,-1.177369 c 0.545518,-0.270342 1.165843,-0.422102 1.819335,-0.422102 m -2.274521,0.703033 0.697247,1.141369 c -0.705716,0.496218 -1.177133,1.329129 -1.177133,2.26086 0,0.928906 0.468595,1.761817 1.177133,2.260858 l -0.697247,1.138544 c -0.827098,-0.548451 -1.436131,-1.384186 -1.690188,-2.370973 0.294989,-0.242814 0.493295,-0.6148 0.493295,-1.028432 0,-0.416455 -0.198306,-0.788441 -0.493295,-1.031257 0.253351,-0.986787 0.86309,-1.819697 1.690188,-2.370972 m -2.52505,2.462028 c 0.517996,0 0.937191,0.419278 0.937191,0.940201 0,0.518098 -0.419195,0.937377 -0.937191,0.937377 -0.520818,0 -0.940013,-0.419279 -0.940013,-0.937377 0,-0.520923 0.419195,-0.940201 0.940013,-0.940201 m 7.52575,1.177368 1.342269,0.01623 c -0.06633,1.039728 -0.515172,1.982751 -1.213123,2.66602 -0.358504,-0.134819 -0.763585,-0.115761 -1.119265,0.09389 -0.358504,0.206816 -0.584332,0.556922 -0.642201,0.937379 -0.347213,0.0967 -0.72477,0.146112 -1.103033,0.146112 -0.653492,0 -1.273817,-0.15176 -1.822158,-0.427043 l 0.664079,-1.174546 c 0.350035,0.16517 0.741706,0.256226 1.158079,0.256226 1.436131,0 2.613263,-1.113842 2.73747,-2.525554 m -0.46295,2.985772 c 0.364149,-0.04659 0.741707,0.132702 0.93719,0.477159 0.261821,0.452454 0.102329,1.025611 -0.350035,1.287483 -0.44954,0.248461 -1.025404,0.102352 -1.284402,-0.350104 -0.258997,-0.457396 -0.102329,-1.025611 0.350035,-1.287483 0.112914,-0.06353 0.22583,-0.110115 0.350035,-0.127055 m -0.0028,0"
     id="path88"
     inkscape:connector-curvature="0"
     style="fill:#dd4512;fill-opacity:1;fill-rule:nonzero;stroke:none" />
</svg>
