<?xml version="1.0" encoding="UTF-8" standalone="no"?>
<svg
   xmlns:dc="http://purl.org/dc/elements/1.1/"
   xmlns:cc="http://creativecommons.org/ns#"
   xmlns:rdf="http://www.w3.org/1999/02/22-rdf-syntax-ns#"
   xmlns:svg="http://www.w3.org/2000/svg"
   xmlns="http://www.w3.org/2000/svg"
   xmlns:sodipodi="http://sodipodi.sourceforge.net/DTD/sodipodi-0.dtd"
   xmlns:inkscape="http://www.inkscape.org/namespaces/inkscape"
   width="48"
   viewBox="0 0 48 48"
   height="48"
   id="svg2"
   version="1.1"
   inkscape:version="0.91 r13725"
   sodipodi:docname="image-loading.svg">
  <metadata
     id="metadata16">
    <rdf:RDF>
      <cc:Work
         rdf:about="">
        <dc:format>image/svg+xml</dc:format>
        <dc:type
           rdf:resource="http://purl.org/dc/dcmitype/StillImage" />
        <dc:title></dc:title>
      </cc:Work>
    </rdf:RDF>
  </metadata>
  <defs
     id="defs14" />
  <sodipodi:namedview
     pagecolor="#ffffff"
     bordercolor="#666666"
     borderopacity="1"
     objecttolerance="10"
     gridtolerance="10"
     guidetolerance="10"
     inkscape:pageopacity="0"
     inkscape:pageshadow="2"
     inkscape:window-width="1366"
     inkscape:window-height="680"
     id="namedview12"
     showgrid="false"
     inkscape:zoom="9.8525391"
     inkscape:cx="24"
     inkscape:cy="24"
     inkscape:window-x="0"
     inkscape:window-y="30"
     inkscape:window-maximized="1"
     inkscape:current-layer="svg2" />
  <g
     transform="matrix(0.1875,0,0,0.18749801,0,2.5462625e-4)"
     id="g4138">
    <path
       inkscape:connector-curvature="0"
       id="path4"
       d="M 42.667969,5.332031 C 37.179688,5.332031 32,10.515625 32,16 l 0,224 c 0,5.17969 5.484375,10.66797 10.667969,10.66797 l 170.664061,0 C 218.51562,250.66797 224,245.17969 224,240 L 224,74.667969 154.66797,5.332031 Z"
       style="fill:#7099c3" />
    <path
       d="M 40.090968,76.417148 39.453541,96.085494 61.616939,95.916983 62.254334,76.248641 40.090968,76.417148 Z M 61.616939,95.916983 60.979526,115.5853 83.142905,115.4168 83.78032,95.748452 61.616939,95.916983 Z m 22.163381,-0.168531 22.16336,-0.168494 0.63742,-19.668352 -22.163373,0.168506 -0.637407,19.66834 z m 22.16336,-0.168494 -0.63741,19.668332 22.16338,-0.16852 0.63742,-19.66832 -22.16339,0.168508 z m 22.16339,-0.168508 22.16338,-0.168517 0.63741,-19.668342 -22.16336,0.168517 -0.63743,19.668342 z m 22.16338,-0.168517 -0.63741,19.668337 22.16337,-0.1685 0.63742,-19.668345 -22.16338,0.168508 z m 22.16338,-0.168508 22.16338,-0.168506 0.63742,-19.668343 -22.16338,0.168507 -0.63742,19.668342 z m 22.16338,-0.168506 -0.63739,19.668321 22.16335,-0.16851 0.63741,-19.668329 -22.16337,0.168518 z m -0.63739,19.668321 -22.16341,0.16853 -0.6374,19.66833 22.16338,-0.16851 0.63743,-19.66835 z m -0.63743,19.66835 -0.63741,19.66835 22.16336,-0.1685 0.63742,-19.66835 -22.16337,0.1685 z m -0.63741,19.66835 -22.16339,0.1685 -0.6374,19.66834 22.1634,-0.1685 0.63739,-19.66834 z m -0.63739,19.66834 -0.63742,19.66834 22.16337,-0.16851 0.63739,-19.66834 -22.16334,0.16851 z m -0.63742,19.66834 -22.16338,0.16851 -0.63743,19.66834 22.1634,-0.16851 0.63741,-19.66834 z m -0.63741,19.66834 -0.63741,19.66835 22.16335,-0.16851 0.63742,-19.66835 -22.16336,0.16851 z m -22.1634,0.16851 -22.16338,0.16851 -0.63739,19.66835 22.16336,-0.16851 0.63741,-19.66835 z m -22.16338,0.16851 0.63741,-19.66834 -22.16336,0.16851 -0.63742,19.66834 22.16337,-0.16851 z m -22.16337,0.16851 -22.16338,0.16851 -0.63741,19.66835 22.16338,-0.16851 0.63741,-19.66835 z m -22.16338,0.16851 0.6374,-19.66834 -22.163351,0.16851 -0.637416,19.66834 22.163367,-0.16851 z m -22.163367,0.16851 -22.16338,0.16851 -0.637428,19.66835 22.163381,-0.16851 0.637427,-19.66835 z m -22.16338,0.16851 0.637395,-19.66834 -22.163365,0.16851 -0.637428,19.66834 22.163398,-0.16851 z m 0.637395,-19.66834 22.163401,-0.16851 0.637396,-19.66835 -22.163385,0.16851 -0.637412,19.66835 z m 0.637412,-19.66835 0.637412,-19.66833 -22.163381,0.1685 -0.637396,19.66834 22.163365,-0.16851 z m 0.637412,-19.66833 22.16338,-0.1685 0.637416,-19.66835 -22.1634,0.1685 -0.637396,19.66835 z m 0.637396,-19.66835 0.637428,-19.66835 -22.163382,0.16852 -0.637411,19.66835 22.163365,-0.16852 z m 22.1634,-0.1685 22.163362,-0.1685 0.63741,-19.66836 -22.163365,0.16851 -0.637407,19.66835 z m 22.163362,-0.1685 -0.63741,19.66833 22.1634,-0.16852 0.63741,-19.66834 -22.1634,0.16853 z m 22.1634,-0.16853 22.16337,-0.1685 0.63741,-19.66835 -22.16339,0.1685 -0.63739,19.66835 z m 22.16337,-0.1685 -0.63742,19.66834 22.16338,-0.16852 0.63742,-19.66834 -22.16338,0.16852 z m -0.63742,19.66834 -22.16336,0.1685 -0.63741,19.66834 22.16338,-0.1685 0.63739,-19.66834 z m -0.63739,19.66834 -0.63743,19.66834 22.1634,-0.16851 0.6374,-19.66835 -22.16337,0.16852 z m -22.16338,0.1685 -22.16341,0.16851 -0.6374,19.66835 22.1634,-0.16851 0.63741,-19.66835 z m -22.16341,0.16851 0.63742,-19.66833 -22.163368,0.16852 -0.637407,19.66832 22.163355,-0.16851 z"
       inkscape:connector-curvature="0"
       id="rect3802"
       style="color:#000000;display:inline;overflow:visible;visibility:visible;fill:#dcdcdc;fill-opacity:1;fill-rule:nonzero;stroke:none;stroke-width:1;marker:none;enable-background:accumulate" />
    <path
       inkscape:connector-curvature="0"
       id="path6"
       d="M 154.66797,64 155,64.332031 155.83203,64 Z M 165.33203,74.667969 224,133.33203 224,74.667969 Z"
       style="fill:#000000;fill-opacity:0.19599998" />
    <path
       inkscape:connector-curvature="0"
       id="path8"
       d="M 154.66797,5.332031 224,74.667969 l -58.66797,0 c -5.17969,0 -10.66406,-5.488281 -10.66406,-10.667969 z"
       style="fill:#ffffff;fill-opacity:0.39200003" />
    <path
       inkscape:connector-curvature="0"
       style="fill:#666666;fill-opacity:1;fill-rule:evenodd;stroke:none"
       d="m 131.68871,92.357418 c -16.54088,9.69e-4 -32.972444,6.813455 -44.659956,18.508922 -11.687517,11.69547 -18.49246,28.12981 -18.49246,44.66818 0,16.53842 6.804943,32.97272 18.49246,44.66818 11.687512,11.69547 28.119076,18.50794 44.659956,18.50891 16.54087,9.7e-4 32.98219,-6.80514 44.68463,-18.50069 11.70244,-11.69551 18.51714,-28.13617 18.51714,-44.6764 0,-16.54022 -6.8147,-32.98088 -18.51714,-44.67639 C 164.6709,99.162623 148.22958,92.356449 131.68871,92.357418 Z m 0,16.847242 c 12.12997,-7.2e-4 24.19133,4.98825 32.77311,13.56496 8.58178,8.57676 13.58144,20.63541 13.58144,32.7649 0,12.1295 -4.99966,24.18819 -13.58144,32.7649 -8.58178,8.57672 -20.64314,13.56568 -32.77311,13.56497 -12.12998,-7.2e-4 -24.17759,-4.99651 -32.748444,-13.57318 -8.570842,-8.57671 -13.556749,-20.62854 -13.556749,-32.75669 0,-12.12814 4.985907,-24.17997 13.556749,-32.75664 8.570854,-8.57667 20.618464,-13.5725 32.748444,-13.57322 z m -8.39894,8.42361 0,46.32987 8.42362,0 8.42361,0 29.48264,0 0,-16.84723 -29.48264,0 0,-29.48264 -16.84723,0 z"
       id="path4184" />
    <path
       id="path3272"
       d="m 125.68871,86.357418 c -16.54088,9.69e-4 -32.972444,6.813455 -44.659956,18.508922 -11.687517,11.69547 -18.49246,28.12981 -18.49246,44.66818 0,16.53842 6.804943,32.97272 18.49246,44.66818 11.687512,11.69547 28.119076,18.50794 44.659956,18.50891 16.54087,9.7e-4 32.98219,-6.80514 44.68463,-18.50069 11.70244,-11.69551 18.51714,-28.13617 18.51714,-44.6764 0,-16.54022 -6.8147,-32.98088 -18.51714,-44.67639 C 158.6709,93.162623 142.22958,86.356449 125.68871,86.357418 Z m 0,16.847242 c 12.12997,-7.2e-4 24.19133,4.98825 32.77311,13.56496 8.58178,8.57676 13.58144,20.63541 13.58144,32.7649 0,12.1295 -4.99966,24.18819 -13.58144,32.7649 -8.58178,8.57672 -20.64314,13.56568 -32.77311,13.56497 -12.12998,-7.2e-4 -24.17759,-4.99651 -32.748444,-13.57318 -8.570842,-8.57671 -13.556749,-20.62854 -13.556749,-32.75669 0,-12.12814 4.985907,-24.17997 13.556749,-32.75664 8.570854,-8.57667 20.618464,-13.5725 32.748444,-13.57322 z m -8.39894,8.42361 0,46.32987 8.42362,0 8.42361,0 29.48264,0 0,-16.84723 -29.48264,0 0,-29.48264 -16.84723,0 z"
       style="fill:#ffffff;fill-opacity:1;fill-rule:evenodd;stroke:none"
       inkscape:connector-curvature="0" />
  </g>
</svg>
